<?xml version="1.0" encoding="utf-8" standalone="no"?>
<!DOCTYPE svg PUBLIC "-//W3C//DTD SVG 1.1//EN"
  "http://www.w3.org/Graphics/SVG/1.1/DTD/svg11.dtd">
<svg xmlns:xlink="http://www.w3.org/1999/xlink" width="684pt" height="396pt" viewBox="0 0 684 396" xmlns="http://www.w3.org/2000/svg" version="1.1">
 <metadata>
  <rdf:RDF xmlns:dc="http://purl.org/dc/elements/1.1/" xmlns:cc="http://creativecommons.org/ns#" xmlns:rdf="http://www.w3.org/1999/02/22-rdf-syntax-ns#">
   <cc:Work>
    <dc:type rdf:resource="http://purl.org/dc/dcmitype/StillImage"/>
    <dc:date>2026-04-01T23:11:51.210018</dc:date>
    <dc:format>image/svg+xml</dc:format>
    <dc:creator>
     <cc:Agent>
      <dc:title>Matplotlib v3.10.8, https://matplotlib.org/</dc:title>
     </cc:Agent>
    </dc:creator>
   </cc:Work>
  </rdf:RDF>
 </metadata>
 <defs>
  <style type="text/css">*{stroke-linejoin: round; stroke-linecap: butt}</style>
 </defs>
 <g id="figure_1">
  <g id="patch_1">
   <path d="M 0 396 
L 684 396 
L 684 0 
L 0 0 
z
" style="fill: #f8fafc"/>
  </g>
  <g id="axes_1">
   <g id="patch_2">
    <path d="M 50 315.989656 
L 650.208167 315.989656 
L 650.208167 33.157656 
L 50 33.157656 
z
" style="fill: #ffffff"/>
   </g>
   <g id="matplotlib.axis_1">
    <g id="xtick_1">
     <g id="line2d_1">
      <defs>
       <path id="m1714c6f0b6" d="M 0 0 
L 0 3.5 
" style="stroke: #475569; stroke-width: 0.8"/>
      </defs>
      <g>
       <use xlink:href="#m1714c6f0b6" x="77.282189" y="315.989656" style="fill: #475569; stroke: #475569; stroke-width: 0.8"/>
      </g>
     </g>
     <g id="text_1">
      <!-- 10 -->
      <g style="fill: #475569" transform="translate(70.919689 330.588094) scale(0.1 -0.1)">
       <defs>
        <path id="DejaVuSans-31" d="M 794 531 
L 1825 531 
L 1825 4091 
L 703 3866 
L 703 4441 
L 1819 4666 
L 2450 4666 
L 2450 531 
L 3481 531 
L 3481 0 
L 794 0 
L 794 531 
z
" transform="scale(0.015625)"/>
        <path id="DejaVuSans-30" d="M 2034 4250 
Q 1547 4250 1301 3770 
Q 1056 3291 1056 2328 
Q 1056 1369 1301 889 
Q 1547 409 2034 409 
Q 2525 409 2770 889 
Q 3016 1369 3016 2328 
Q 3016 3291 2770 3770 
Q 2525 4250 2034 4250 
z
M 2034 4750 
Q 2819 4750 3233 4129 
Q 3647 3509 3647 2328 
Q 3647 1150 3233 529 
Q 2819 -91 2034 -91 
Q 1250 -91 836 529 
Q 422 1150 422 2328 
Q 422 3509 836 4129 
Q 1250 4750 2034 4750 
z
" transform="scale(0.015625)"/>
       </defs>
       <use xlink:href="#DejaVuSans-31"/>
       <use xlink:href="#DejaVuSans-30" transform="translate(63.623047 0)"/>
      </g>
     </g>
    </g>
    <g id="xtick_2">
     <g id="line2d_2">
      <g>
       <use xlink:href="#m1714c6f0b6" x="121.824539" y="315.989656" style="fill: #475569; stroke: #475569; stroke-width: 0.8"/>
      </g>
     </g>
     <g id="text_2">
      <!-- 50 -->
      <g style="fill: #475569" transform="translate(115.462039 330.588094) scale(0.1 -0.1)">
       <defs>
        <path id="DejaVuSans-35" d="M 691 4666 
L 3169 4666 
L 3169 4134 
L 1269 4134 
L 1269 2991 
Q 1406 3038 1543 3061 
Q 1681 3084 1819 3084 
Q 2600 3084 3056 2656 
Q 3513 2228 3513 1497 
Q 3513 744 3044 326 
Q 2575 -91 1722 -91 
Q 1428 -91 1123 -41 
Q 819 9 494 109 
L 494 744 
Q 775 591 1075 516 
Q 1375 441 1709 441 
Q 2250 441 2565 725 
Q 2881 1009 2881 1497 
Q 2881 1984 2565 2268 
Q 2250 2553 1709 2553 
Q 1456 2553 1204 2497 
Q 953 2441 691 2322 
L 691 4666 
z
" transform="scale(0.015625)"/>
       </defs>
       <use xlink:href="#DejaVuSans-35"/>
       <use xlink:href="#DejaVuSans-30" transform="translate(63.623047 0)"/>
      </g>
     </g>
    </g>
    <g id="xtick_3">
     <g id="line2d_3">
      <g>
       <use xlink:href="#m1714c6f0b6" x="177.502477" y="315.989656" style="fill: #475569; stroke: #475569; stroke-width: 0.8"/>
      </g>
     </g>
     <g id="text_3">
      <!-- 100 -->
      <g style="fill: #475569" transform="translate(167.958727 330.588094) scale(0.1 -0.1)">
       <use xlink:href="#DejaVuSans-31"/>
       <use xlink:href="#DejaVuSans-30" transform="translate(63.623047 0)"/>
       <use xlink:href="#DejaVuSans-30" transform="translate(127.246094 0)"/>
      </g>
     </g>
    </g>
    <g id="xtick_4">
     <g id="line2d_4">
      <g>
       <use xlink:href="#m1714c6f0b6" x="344.53629" y="315.989656" style="fill: #475569; stroke: #475569; stroke-width: 0.8"/>
      </g>
     </g>
     <g id="text_4">
      <!-- 250 -->
      <g style="fill: #475569" transform="translate(334.99254 330.588094) scale(0.1 -0.1)">
       <defs>
        <path id="DejaVuSans-32" d="M 1228 531 
L 3431 531 
L 3431 0 
L 469 0 
L 469 531 
Q 828 903 1448 1529 
Q 2069 2156 2228 2338 
Q 2531 2678 2651 2914 
Q 2772 3150 2772 3378 
Q 2772 3750 2511 3984 
Q 2250 4219 1831 4219 
Q 1534 4219 1204 4116 
Q 875 4013 500 3803 
L 500 4441 
Q 881 4594 1212 4672 
Q 1544 4750 1819 4750 
Q 2544 4750 2975 4387 
Q 3406 4025 3406 3419 
Q 3406 3131 3298 2873 
Q 3191 2616 2906 2266 
Q 2828 2175 2409 1742 
Q 1991 1309 1228 531 
z
" transform="scale(0.015625)"/>
       </defs>
       <use xlink:href="#DejaVuSans-32"/>
       <use xlink:href="#DejaVuSans-35" transform="translate(63.623047 0)"/>
       <use xlink:href="#DejaVuSans-30" transform="translate(127.246094 0)"/>
      </g>
     </g>
    </g>
    <g id="xtick_5">
     <g id="line2d_5">
      <g>
       <use xlink:href="#m1714c6f0b6" x="622.925978" y="315.989656" style="fill: #475569; stroke: #475569; stroke-width: 0.8"/>
      </g>
     </g>
     <g id="text_5">
      <!-- 500 -->
      <g style="fill: #475569" transform="translate(613.382228 330.588094) scale(0.1 -0.1)">
       <use xlink:href="#DejaVuSans-35"/>
       <use xlink:href="#DejaVuSans-30" transform="translate(63.623047 0)"/>
       <use xlink:href="#DejaVuSans-30" transform="translate(127.246094 0)"/>
      </g>
     </g>
    </g>
    <g id="text_6">
     <!-- Operation Count -->
     <g style="fill: #334155" transform="translate(304.65088 345.026063) scale(0.11 -0.11)">
      <defs>
       <path id="DejaVuSans-4f" d="M 2522 4238 
Q 1834 4238 1429 3725 
Q 1025 3213 1025 2328 
Q 1025 1447 1429 934 
Q 1834 422 2522 422 
Q 3209 422 3611 934 
Q 4013 1447 4013 2328 
Q 4013 3213 3611 3725 
Q 3209 4238 2522 4238 
z
M 2522 4750 
Q 3503 4750 4090 4092 
Q 4678 3434 4678 2328 
Q 4678 1225 4090 567 
Q 3503 -91 2522 -91 
Q 1538 -91 948 565 
Q 359 1222 359 2328 
Q 359 3434 948 4092 
Q 1538 4750 2522 4750 
z
" transform="scale(0.015625)"/>
       <path id="DejaVuSans-70" d="M 1159 525 
L 1159 -1331 
L 581 -1331 
L 581 3500 
L 1159 3500 
L 1159 2969 
Q 1341 3281 1617 3432 
Q 1894 3584 2278 3584 
Q 2916 3584 3314 3078 
Q 3713 2572 3713 1747 
Q 3713 922 3314 415 
Q 2916 -91 2278 -91 
Q 1894 -91 1617 61 
Q 1341 213 1159 525 
z
M 3116 1747 
Q 3116 2381 2855 2742 
Q 2594 3103 2138 3103 
Q 1681 3103 1420 2742 
Q 1159 2381 1159 1747 
Q 1159 1113 1420 752 
Q 1681 391 2138 391 
Q 2594 391 2855 752 
Q 3116 1113 3116 1747 
z
" transform="scale(0.015625)"/>
       <path id="DejaVuSans-65" d="M 3597 1894 
L 3597 1613 
L 953 1613 
Q 991 1019 1311 708 
Q 1631 397 2203 397 
Q 2534 397 2845 478 
Q 3156 559 3463 722 
L 3463 178 
Q 3153 47 2828 -22 
Q 2503 -91 2169 -91 
Q 1331 -91 842 396 
Q 353 884 353 1716 
Q 353 2575 817 3079 
Q 1281 3584 2069 3584 
Q 2775 3584 3186 3129 
Q 3597 2675 3597 1894 
z
M 3022 2063 
Q 3016 2534 2758 2815 
Q 2500 3097 2075 3097 
Q 1594 3097 1305 2825 
Q 1016 2553 972 2059 
L 3022 2063 
z
" transform="scale(0.015625)"/>
       <path id="DejaVuSans-72" d="M 2631 2963 
Q 2534 3019 2420 3045 
Q 2306 3072 2169 3072 
Q 1681 3072 1420 2755 
Q 1159 2438 1159 1844 
L 1159 0 
L 581 0 
L 581 3500 
L 1159 3500 
L 1159 2956 
Q 1341 3275 1631 3429 
Q 1922 3584 2338 3584 
Q 2397 3584 2469 3576 
Q 2541 3569 2628 3553 
L 2631 2963 
z
" transform="scale(0.015625)"/>
       <path id="DejaVuSans-61" d="M 2194 1759 
Q 1497 1759 1228 1600 
Q 959 1441 959 1056 
Q 959 750 1161 570 
Q 1363 391 1709 391 
Q 2188 391 2477 730 
Q 2766 1069 2766 1631 
L 2766 1759 
L 2194 1759 
z
M 3341 1997 
L 3341 0 
L 2766 0 
L 2766 531 
Q 2569 213 2275 61 
Q 1981 -91 1556 -91 
Q 1019 -91 701 211 
Q 384 513 384 1019 
Q 384 1609 779 1909 
Q 1175 2209 1959 2209 
L 2766 2209 
L 2766 2266 
Q 2766 2663 2505 2880 
Q 2244 3097 1772 3097 
Q 1472 3097 1187 3025 
Q 903 2953 641 2809 
L 641 3341 
Q 956 3463 1253 3523 
Q 1550 3584 1831 3584 
Q 2591 3584 2966 3190 
Q 3341 2797 3341 1997 
z
" transform="scale(0.015625)"/>
       <path id="DejaVuSans-74" d="M 1172 4494 
L 1172 3500 
L 2356 3500 
L 2356 3053 
L 1172 3053 
L 1172 1153 
Q 1172 725 1289 603 
Q 1406 481 1766 481 
L 2356 481 
L 2356 0 
L 1766 0 
Q 1100 0 847 248 
Q 594 497 594 1153 
L 594 3053 
L 172 3053 
L 172 3500 
L 594 3500 
L 594 4494 
L 1172 4494 
z
" transform="scale(0.015625)"/>
       <path id="DejaVuSans-69" d="M 603 3500 
L 1178 3500 
L 1178 0 
L 603 0 
L 603 3500 
z
M 603 4863 
L 1178 4863 
L 1178 4134 
L 603 4134 
L 603 4863 
z
" transform="scale(0.015625)"/>
       <path id="DejaVuSans-6f" d="M 1959 3097 
Q 1497 3097 1228 2736 
Q 959 2375 959 1747 
Q 959 1119 1226 758 
Q 1494 397 1959 397 
Q 2419 397 2687 759 
Q 2956 1122 2956 1747 
Q 2956 2369 2687 2733 
Q 2419 3097 1959 3097 
z
M 1959 3584 
Q 2709 3584 3137 3096 
Q 3566 2609 3566 1747 
Q 3566 888 3137 398 
Q 2709 -91 1959 -91 
Q 1206 -91 779 398 
Q 353 888 353 1747 
Q 353 2609 779 3096 
Q 1206 3584 1959 3584 
z
" transform="scale(0.015625)"/>
       <path id="DejaVuSans-6e" d="M 3513 2113 
L 3513 0 
L 2938 0 
L 2938 2094 
Q 2938 2591 2744 2837 
Q 2550 3084 2163 3084 
Q 1697 3084 1428 2787 
Q 1159 2491 1159 1978 
L 1159 0 
L 581 0 
L 581 3500 
L 1159 3500 
L 1159 2956 
Q 1366 3272 1645 3428 
Q 1925 3584 2291 3584 
Q 2894 3584 3203 3211 
Q 3513 2838 3513 2113 
z
" transform="scale(0.015625)"/>
       <path id="DejaVuSans-20" transform="scale(0.015625)"/>
       <path id="DejaVuSans-43" d="M 4122 4306 
L 4122 3641 
Q 3803 3938 3442 4084 
Q 3081 4231 2675 4231 
Q 1875 4231 1450 3742 
Q 1025 3253 1025 2328 
Q 1025 1406 1450 917 
Q 1875 428 2675 428 
Q 3081 428 3442 575 
Q 3803 722 4122 1019 
L 4122 359 
Q 3791 134 3420 21 
Q 3050 -91 2638 -91 
Q 1578 -91 968 557 
Q 359 1206 359 2328 
Q 359 3453 968 4101 
Q 1578 4750 2638 4750 
Q 3056 4750 3426 4639 
Q 3797 4528 4122 4306 
z
" transform="scale(0.015625)"/>
       <path id="DejaVuSans-75" d="M 544 1381 
L 544 3500 
L 1119 3500 
L 1119 1403 
Q 1119 906 1312 657 
Q 1506 409 1894 409 
Q 2359 409 2629 706 
Q 2900 1003 2900 1516 
L 2900 3500 
L 3475 3500 
L 3475 0 
L 2900 0 
L 2900 538 
Q 2691 219 2414 64 
Q 2138 -91 1772 -91 
Q 1169 -91 856 284 
Q 544 659 544 1381 
z
M 1991 3584 
L 1991 3584 
z
" transform="scale(0.015625)"/>
      </defs>
      <use xlink:href="#DejaVuSans-4f"/>
      <use xlink:href="#DejaVuSans-70" transform="translate(78.710938 0)"/>
      <use xlink:href="#DejaVuSans-65" transform="translate(142.1875 0)"/>
      <use xlink:href="#DejaVuSans-72" transform="translate(203.710938 0)"/>
      <use xlink:href="#DejaVuSans-61" transform="translate(244.824219 0)"/>
      <use xlink:href="#DejaVuSans-74" transform="translate(306.103516 0)"/>
      <use xlink:href="#DejaVuSans-69" transform="translate(345.3125 0)"/>
      <use xlink:href="#DejaVuSans-6f" transform="translate(373.095703 0)"/>
      <use xlink:href="#DejaVuSans-6e" transform="translate(434.277344 0)"/>
      <use xlink:href="#DejaVuSans-20" transform="translate(497.65625 0)"/>
      <use xlink:href="#DejaVuSans-43" transform="translate(529.443359 0)"/>
      <use xlink:href="#DejaVuSans-6f" transform="translate(599.267578 0)"/>
      <use xlink:href="#DejaVuSans-75" transform="translate(660.449219 0)"/>
      <use xlink:href="#DejaVuSans-6e" transform="translate(723.828125 0)"/>
      <use xlink:href="#DejaVuSans-74" transform="translate(787.207031 0)"/>
     </g>
    </g>
   </g>
   <g id="matplotlib.axis_2">
    <g id="ytick_1">
     <g id="line2d_6">
      <path d="M 50 313.078962 
L 650.208167 313.078962 
" clip-path="url(#pbd58556ef6)" style="fill: none; stroke: #e2e8f0; stroke-linecap: square"/>
     </g>
     <g id="line2d_7">
      <defs>
       <path id="m7f2abc2efa" d="M 0 0 
L -3.5 0 
" style="stroke: #475569; stroke-width: 0.8"/>
      </defs>
      <g>
       <use xlink:href="#m7f2abc2efa" x="50" y="313.078962" style="fill: #475569; stroke: #475569; stroke-width: 0.8"/>
      </g>
     </g>
     <g id="text_7">
      <!-- 0 -->
      <g style="fill: #475569" transform="translate(36.6375 316.878181) scale(0.1 -0.1)">
       <use xlink:href="#DejaVuSans-30"/>
      </g>
     </g>
    </g>
    <g id="ytick_2">
     <g id="line2d_8">
      <path d="M 50 268.95649 
L 650.208167 268.95649 
" clip-path="url(#pbd58556ef6)" style="fill: none; stroke: #e2e8f0; stroke-linecap: square"/>
     </g>
     <g id="line2d_9">
      <g>
       <use xlink:href="#m7f2abc2efa" x="50" y="268.95649" style="fill: #475569; stroke: #475569; stroke-width: 0.8"/>
      </g>
     </g>
     <g id="text_8">
      <!-- 200 -->
      <g style="fill: #475569" transform="translate(23.9125 272.755709) scale(0.1 -0.1)">
       <use xlink:href="#DejaVuSans-32"/>
       <use xlink:href="#DejaVuSans-30" transform="translate(63.623047 0)"/>
       <use xlink:href="#DejaVuSans-30" transform="translate(127.246094 0)"/>
      </g>
     </g>
    </g>
    <g id="ytick_3">
     <g id="line2d_10">
      <path d="M 50 224.834019 
L 650.208167 224.834019 
" clip-path="url(#pbd58556ef6)" style="fill: none; stroke: #e2e8f0; stroke-linecap: square"/>
     </g>
     <g id="line2d_11">
      <g>
       <use xlink:href="#m7f2abc2efa" x="50" y="224.834019" style="fill: #475569; stroke: #475569; stroke-width: 0.8"/>
      </g>
     </g>
     <g id="text_9">
      <!-- 400 -->
      <g style="fill: #475569" transform="translate(23.9125 228.633238) scale(0.1 -0.1)">
       <defs>
        <path id="DejaVuSans-34" d="M 2419 4116 
L 825 1625 
L 2419 1625 
L 2419 4116 
z
M 2253 4666 
L 3047 4666 
L 3047 1625 
L 3713 1625 
L 3713 1100 
L 3047 1100 
L 3047 0 
L 2419 0 
L 2419 1100 
L 313 1100 
L 313 1709 
L 2253 4666 
z
" transform="scale(0.015625)"/>
       </defs>
       <use xlink:href="#DejaVuSans-34"/>
       <use xlink:href="#DejaVuSans-30" transform="translate(63.623047 0)"/>
       <use xlink:href="#DejaVuSans-30" transform="translate(127.246094 0)"/>
      </g>
     </g>
    </g>
    <g id="ytick_4">
     <g id="line2d_12">
      <path d="M 50 180.711547 
L 650.208167 180.711547 
" clip-path="url(#pbd58556ef6)" style="fill: none; stroke: #e2e8f0; stroke-linecap: square"/>
     </g>
     <g id="line2d_13">
      <g>
       <use xlink:href="#m7f2abc2efa" x="50" y="180.711547" style="fill: #475569; stroke: #475569; stroke-width: 0.8"/>
      </g>
     </g>
     <g id="text_10">
      <!-- 600 -->
      <g style="fill: #475569" transform="translate(23.9125 184.510766) scale(0.1 -0.1)">
       <defs>
        <path id="DejaVuSans-36" d="M 2113 2584 
Q 1688 2584 1439 2293 
Q 1191 2003 1191 1497 
Q 1191 994 1439 701 
Q 1688 409 2113 409 
Q 2538 409 2786 701 
Q 3034 994 3034 1497 
Q 3034 2003 2786 2293 
Q 2538 2584 2113 2584 
z
M 3366 4563 
L 3366 3988 
Q 3128 4100 2886 4159 
Q 2644 4219 2406 4219 
Q 1781 4219 1451 3797 
Q 1122 3375 1075 2522 
Q 1259 2794 1537 2939 
Q 1816 3084 2150 3084 
Q 2853 3084 3261 2657 
Q 3669 2231 3669 1497 
Q 3669 778 3244 343 
Q 2819 -91 2113 -91 
Q 1303 -91 875 529 
Q 447 1150 447 2328 
Q 447 3434 972 4092 
Q 1497 4750 2381 4750 
Q 2619 4750 2861 4703 
Q 3103 4656 3366 4563 
z
" transform="scale(0.015625)"/>
       </defs>
       <use xlink:href="#DejaVuSans-36"/>
       <use xlink:href="#DejaVuSans-30" transform="translate(63.623047 0)"/>
       <use xlink:href="#DejaVuSans-30" transform="translate(127.246094 0)"/>
      </g>
     </g>
    </g>
    <g id="ytick_5">
     <g id="line2d_14">
      <path d="M 50 136.589076 
L 650.208167 136.589076 
" clip-path="url(#pbd58556ef6)" style="fill: none; stroke: #e2e8f0; stroke-linecap: square"/>
     </g>
     <g id="line2d_15">
      <g>
       <use xlink:href="#m7f2abc2efa" x="50" y="136.589076" style="fill: #475569; stroke: #475569; stroke-width: 0.8"/>
      </g>
     </g>
     <g id="text_11">
      <!-- 800 -->
      <g style="fill: #475569" transform="translate(23.9125 140.388294) scale(0.1 -0.1)">
       <defs>
        <path id="DejaVuSans-38" d="M 2034 2216 
Q 1584 2216 1326 1975 
Q 1069 1734 1069 1313 
Q 1069 891 1326 650 
Q 1584 409 2034 409 
Q 2484 409 2743 651 
Q 3003 894 3003 1313 
Q 3003 1734 2745 1975 
Q 2488 2216 2034 2216 
z
M 1403 2484 
Q 997 2584 770 2862 
Q 544 3141 544 3541 
Q 544 4100 942 4425 
Q 1341 4750 2034 4750 
Q 2731 4750 3128 4425 
Q 3525 4100 3525 3541 
Q 3525 3141 3298 2862 
Q 3072 2584 2669 2484 
Q 3125 2378 3379 2068 
Q 3634 1759 3634 1313 
Q 3634 634 3220 271 
Q 2806 -91 2034 -91 
Q 1263 -91 848 271 
Q 434 634 434 1313 
Q 434 1759 690 2068 
Q 947 2378 1403 2484 
z
M 1172 3481 
Q 1172 3119 1398 2916 
Q 1625 2713 2034 2713 
Q 2441 2713 2670 2916 
Q 2900 3119 2900 3481 
Q 2900 3844 2670 4047 
Q 2441 4250 2034 4250 
Q 1625 4250 1398 4047 
Q 1172 3844 1172 3481 
z
" transform="scale(0.015625)"/>
       </defs>
       <use xlink:href="#DejaVuSans-38"/>
       <use xlink:href="#DejaVuSans-30" transform="translate(63.623047 0)"/>
       <use xlink:href="#DejaVuSans-30" transform="translate(127.246094 0)"/>
      </g>
     </g>
    </g>
    <g id="ytick_6">
     <g id="line2d_16">
      <path d="M 50 92.466604 
L 650.208167 92.466604 
" clip-path="url(#pbd58556ef6)" style="fill: none; stroke: #e2e8f0; stroke-linecap: square"/>
     </g>
     <g id="line2d_17">
      <g>
       <use xlink:href="#m7f2abc2efa" x="50" y="92.466604" style="fill: #475569; stroke: #475569; stroke-width: 0.8"/>
      </g>
     </g>
     <g id="text_12">
      <!-- 1000 -->
      <g style="fill: #475569" transform="translate(17.55 96.265823) scale(0.1 -0.1)">
       <use xlink:href="#DejaVuSans-31"/>
       <use xlink:href="#DejaVuSans-30" transform="translate(63.623047 0)"/>
       <use xlink:href="#DejaVuSans-30" transform="translate(127.246094 0)"/>
       <use xlink:href="#DejaVuSans-30" transform="translate(190.869141 0)"/>
      </g>
     </g>
    </g>
    <g id="ytick_7">
     <g id="line2d_18">
      <path d="M 50 48.344132 
L 650.208167 48.344132 
" clip-path="url(#pbd58556ef6)" style="fill: none; stroke: #e2e8f0; stroke-linecap: square"/>
     </g>
     <g id="line2d_19">
      <g>
       <use xlink:href="#m7f2abc2efa" x="50" y="48.344132" style="fill: #475569; stroke: #475569; stroke-width: 0.8"/>
      </g>
     </g>
     <g id="text_13">
      <!-- 1200 -->
      <g style="fill: #475569" transform="translate(17.55 52.143351) scale(0.1 -0.1)">
       <use xlink:href="#DejaVuSans-31"/>
       <use xlink:href="#DejaVuSans-32" transform="translate(63.623047 0)"/>
       <use xlink:href="#DejaVuSans-30" transform="translate(127.246094 0)"/>
       <use xlink:href="#DejaVuSans-30" transform="translate(190.869141 0)"/>
      </g>
     </g>
    </g>
    <g id="text_14">
     <!-- Mean Latency ($\mu s/op$) -->
     <g style="fill: #334155" transform="translate(11.24 234.193656) rotate(-90) scale(0.11 -0.11)">
      <defs>
       <path id="DejaVuSans-4d" d="M 628 4666 
L 1569 4666 
L 2759 1491 
L 3956 4666 
L 4897 4666 
L 4897 0 
L 4281 0 
L 4281 4097 
L 3078 897 
L 2444 897 
L 1241 4097 
L 1241 0 
L 628 0 
L 628 4666 
z
" transform="scale(0.015625)"/>
       <path id="DejaVuSans-4c" d="M 628 4666 
L 1259 4666 
L 1259 531 
L 3531 531 
L 3531 0 
L 628 0 
L 628 4666 
z
" transform="scale(0.015625)"/>
       <path id="DejaVuSans-63" d="M 3122 3366 
L 3122 2828 
Q 2878 2963 2633 3030 
Q 2388 3097 2138 3097 
Q 1578 3097 1268 2742 
Q 959 2388 959 1747 
Q 959 1106 1268 751 
Q 1578 397 2138 397 
Q 2388 397 2633 464 
Q 2878 531 3122 666 
L 3122 134 
Q 2881 22 2623 -34 
Q 2366 -91 2075 -91 
Q 1284 -91 818 406 
Q 353 903 353 1747 
Q 353 2603 823 3093 
Q 1294 3584 2113 3584 
Q 2378 3584 2631 3529 
Q 2884 3475 3122 3366 
z
" transform="scale(0.015625)"/>
       <path id="DejaVuSans-79" d="M 2059 -325 
Q 1816 -950 1584 -1140 
Q 1353 -1331 966 -1331 
L 506 -1331 
L 506 -850 
L 844 -850 
Q 1081 -850 1212 -737 
Q 1344 -625 1503 -206 
L 1606 56 
L 191 3500 
L 800 3500 
L 1894 763 
L 2988 3500 
L 3597 3500 
L 2059 -325 
z
" transform="scale(0.015625)"/>
       <path id="DejaVuSans-28" d="M 1984 4856 
Q 1566 4138 1362 3434 
Q 1159 2731 1159 2009 
Q 1159 1288 1364 580 
Q 1569 -128 1984 -844 
L 1484 -844 
Q 1016 -109 783 600 
Q 550 1309 550 2009 
Q 550 2706 781 3412 
Q 1013 4119 1484 4856 
L 1984 4856 
z
" transform="scale(0.015625)"/>
       <path id="DejaVuSans-Oblique-3bc" d="M -84 -1331 
L 856 3500 
L 1434 3500 
L 1009 1322 
Q 997 1256 987 1175 
Q 978 1094 978 1013 
Q 978 722 1161 565 
Q 1344 409 1684 409 
Q 2147 409 2431 671 
Q 2716 934 2816 1459 
L 3213 3500 
L 3788 3500 
L 3266 809 
Q 3253 750 3248 706 
Q 3244 663 3244 628 
Q 3244 531 3283 486 
Q 3322 441 3406 441 
Q 3438 441 3492 456 
Q 3547 472 3647 513 
L 3559 50 
Q 3422 -19 3297 -55 
Q 3172 -91 3053 -91 
Q 2847 -91 2730 40 
Q 2613 172 2613 403 
Q 2438 153 2195 31 
Q 1953 -91 1625 -91 
Q 1334 -91 1117 43 
Q 900 178 831 397 
L 494 -1331 
L -84 -1331 
z
" transform="scale(0.015625)"/>
       <path id="DejaVuSans-Oblique-73" d="M 3200 3397 
L 3091 2853 
Q 2863 2978 2609 3040 
Q 2356 3103 2088 3103 
Q 1634 3103 1373 2948 
Q 1113 2794 1113 2528 
Q 1113 2219 1719 2053 
Q 1766 2041 1788 2034 
L 1972 1978 
Q 2547 1819 2739 1644 
Q 2931 1469 2931 1166 
Q 2931 609 2489 259 
Q 2047 -91 1331 -91 
Q 1053 -91 747 -37 
Q 441 16 72 128 
L 184 722 
Q 500 559 806 475 
Q 1113 391 1394 391 
Q 1816 391 2080 572 
Q 2344 753 2344 1031 
Q 2344 1331 1650 1516 
L 1591 1531 
L 1394 1581 
Q 956 1697 753 1886 
Q 550 2075 550 2369 
Q 550 2928 970 3256 
Q 1391 3584 2113 3584 
Q 2397 3584 2667 3537 
Q 2938 3491 3200 3397 
z
" transform="scale(0.015625)"/>
       <path id="DejaVuSans-2f" d="M 1625 4666 
L 2156 4666 
L 531 -594 
L 0 -594 
L 1625 4666 
z
" transform="scale(0.015625)"/>
       <path id="DejaVuSans-Oblique-6f" d="M 1625 -91 
Q 1009 -91 651 289 
Q 294 669 294 1325 
Q 294 1706 417 2101 
Q 541 2497 738 2766 
Q 1047 3184 1428 3384 
Q 1809 3584 2291 3584 
Q 2888 3584 3255 3212 
Q 3622 2841 3622 2241 
Q 3622 1825 3500 1412 
Q 3378 1000 3181 728 
Q 2875 309 2494 109 
Q 2113 -91 1625 -91 
z
M 891 1344 
Q 891 869 1089 633 
Q 1288 397 1691 397 
Q 2269 397 2648 901 
Q 3028 1406 3028 2181 
Q 3028 2634 2825 2865 
Q 2622 3097 2228 3097 
Q 1903 3097 1650 2945 
Q 1397 2794 1197 2484 
Q 1050 2253 970 1956 
Q 891 1659 891 1344 
z
" transform="scale(0.015625)"/>
       <path id="DejaVuSans-Oblique-70" d="M 3175 2156 
Q 3175 2616 2975 2859 
Q 2775 3103 2400 3103 
Q 2144 3103 1911 2972 
Q 1678 2841 1497 2591 
Q 1319 2344 1212 1994 
Q 1106 1644 1106 1300 
Q 1106 863 1306 627 
Q 1506 391 1875 391 
Q 2147 391 2380 519 
Q 2613 647 2778 891 
Q 2956 1147 3065 1494 
Q 3175 1841 3175 2156 
z
M 1394 2969 
Q 1625 3272 1939 3428 
Q 2253 3584 2638 3584 
Q 3175 3584 3472 3232 
Q 3769 2881 3769 2247 
Q 3769 1728 3584 1258 
Q 3400 788 3053 416 
Q 2822 169 2531 39 
Q 2241 -91 1919 -91 
Q 1547 -91 1294 64 
Q 1041 219 916 525 
L 556 -1331 
L -19 -1331 
L 922 3500 
L 1497 3500 
L 1394 2969 
z
" transform="scale(0.015625)"/>
       <path id="DejaVuSans-29" d="M 513 4856 
L 1013 4856 
Q 1481 4119 1714 3412 
Q 1947 2706 1947 2009 
Q 1947 1309 1714 600 
Q 1481 -109 1013 -844 
L 513 -844 
Q 928 -128 1133 580 
Q 1338 1288 1338 2009 
Q 1338 2731 1133 3434 
Q 928 4138 513 4856 
z
" transform="scale(0.015625)"/>
      </defs>
      <use xlink:href="#DejaVuSans-4d" transform="translate(0 0.125)"/>
      <use xlink:href="#DejaVuSans-65" transform="translate(86.279297 0.125)"/>
      <use xlink:href="#DejaVuSans-61" transform="translate(147.802734 0.125)"/>
      <use xlink:href="#DejaVuSans-6e" transform="translate(209.082031 0.125)"/>
      <use xlink:href="#DejaVuSans-20" transform="translate(272.460938 0.125)"/>
      <use xlink:href="#DejaVuSans-4c" transform="translate(304.248047 0.125)"/>
      <use xlink:href="#DejaVuSans-61" transform="translate(359.960938 0.125)"/>
      <use xlink:href="#DejaVuSans-74" transform="translate(421.240234 0.125)"/>
      <use xlink:href="#DejaVuSans-65" transform="translate(460.449219 0.125)"/>
      <use xlink:href="#DejaVuSans-6e" transform="translate(521.972656 0.125)"/>
      <use xlink:href="#DejaVuSans-63" transform="translate(585.351562 0.125)"/>
      <use xlink:href="#DejaVuSans-79" transform="translate(640.332031 0.125)"/>
      <use xlink:href="#DejaVuSans-20" transform="translate(699.511719 0.125)"/>
      <use xlink:href="#DejaVuSans-28" transform="translate(731.298828 0.125)"/>
      <use xlink:href="#DejaVuSans-Oblique-3bc" transform="translate(770.3125 0.125)"/>
      <use xlink:href="#DejaVuSans-Oblique-73" transform="translate(833.935547 0.125)"/>
      <use xlink:href="#DejaVuSans-2f" transform="translate(886.035156 0.125)"/>
      <use xlink:href="#DejaVuSans-Oblique-6f" transform="translate(919.726562 0.125)"/>
      <use xlink:href="#DejaVuSans-Oblique-70" transform="translate(980.908203 0.125)"/>
      <use xlink:href="#DejaVuSans-29" transform="translate(1044.384766 0.125)"/>
     </g>
    </g>
   </g>
   <g id="patch_3">
    <path d="M 50 315.989656 
L 50 33.157656 
" style="fill: none; stroke: #cbd5e1; stroke-width: 0.8; stroke-linejoin: miter; stroke-linecap: square"/>
   </g>
   <g id="patch_4">
    <path d="M 650.208167 315.989656 
L 650.208167 33.157656 
" style="fill: none; stroke: #cbd5e1; stroke-width: 0.8; stroke-linejoin: miter; stroke-linecap: square"/>
   </g>
   <g id="patch_5">
    <path d="M 50 315.989656 
L 650.208167 315.989656 
" style="fill: none; stroke: #cbd5e1; stroke-width: 0.8; stroke-linejoin: miter; stroke-linecap: square"/>
   </g>
   <g id="patch_6">
    <path d="M 50 33.157656 
L 650.208167 33.157656 
" style="fill: none; stroke: #cbd5e1; stroke-width: 0.8; stroke-linejoin: miter; stroke-linecap: square"/>
   </g>
   <g id="text_15">
    <!-- DecentDB -->
    <g style="fill: #111827" transform="translate(630.925978 164.497476) scale(0.09 -0.09)">
     <defs>
      <path id="DejaVuSans-Bold-44" d="M 1791 3756 
L 1791 909 
L 2222 909 
Q 2959 909 3348 1275 
Q 3738 1641 3738 2338 
Q 3738 3031 3350 3393 
Q 2963 3756 2222 3756 
L 1791 3756 
z
M 588 4666 
L 1856 4666 
Q 2919 4666 3439 4514 
Q 3959 4363 4331 4000 
Q 4659 3684 4818 3271 
Q 4978 2859 4978 2338 
Q 4978 1809 4818 1395 
Q 4659 981 4331 666 
Q 3956 303 3431 151 
Q 2906 0 1856 0 
L 588 0 
L 588 4666 
z
" transform="scale(0.015625)"/>
      <path id="DejaVuSans-Bold-65" d="M 4031 1759 
L 4031 1441 
L 1416 1441 
Q 1456 1047 1700 850 
Q 1944 653 2381 653 
Q 2734 653 3104 758 
Q 3475 863 3866 1075 
L 3866 213 
Q 3469 63 3072 -14 
Q 2675 -91 2278 -91 
Q 1328 -91 801 392 
Q 275 875 275 1747 
Q 275 2603 792 3093 
Q 1309 3584 2216 3584 
Q 3041 3584 3536 3087 
Q 4031 2591 4031 1759 
z
M 2881 2131 
Q 2881 2450 2695 2645 
Q 2509 2841 2209 2841 
Q 1884 2841 1681 2658 
Q 1478 2475 1428 2131 
L 2881 2131 
z
" transform="scale(0.015625)"/>
      <path id="DejaVuSans-Bold-63" d="M 3366 3391 
L 3366 2478 
Q 3138 2634 2908 2709 
Q 2678 2784 2431 2784 
Q 1963 2784 1702 2511 
Q 1441 2238 1441 1747 
Q 1441 1256 1702 982 
Q 1963 709 2431 709 
Q 2694 709 2930 787 
Q 3166 866 3366 1019 
L 3366 103 
Q 3103 6 2833 -42 
Q 2563 -91 2291 -91 
Q 1344 -91 809 395 
Q 275 881 275 1747 
Q 275 2613 809 3098 
Q 1344 3584 2291 3584 
Q 2566 3584 2833 3536 
Q 3100 3488 3366 3391 
z
" transform="scale(0.015625)"/>
      <path id="DejaVuSans-Bold-6e" d="M 4056 2131 
L 4056 0 
L 2931 0 
L 2931 347 
L 2931 1631 
Q 2931 2084 2911 2256 
Q 2891 2428 2841 2509 
Q 2775 2619 2662 2680 
Q 2550 2741 2406 2741 
Q 2056 2741 1856 2470 
Q 1656 2200 1656 1722 
L 1656 0 
L 538 0 
L 538 3500 
L 1656 3500 
L 1656 2988 
Q 1909 3294 2193 3439 
Q 2478 3584 2822 3584 
Q 3428 3584 3742 3212 
Q 4056 2841 4056 2131 
z
" transform="scale(0.015625)"/>
      <path id="DejaVuSans-Bold-74" d="M 1759 4494 
L 1759 3500 
L 2913 3500 
L 2913 2700 
L 1759 2700 
L 1759 1216 
Q 1759 972 1856 886 
Q 1953 800 2241 800 
L 2816 800 
L 2816 0 
L 1856 0 
Q 1194 0 917 276 
Q 641 553 641 1216 
L 641 2700 
L 84 2700 
L 84 3500 
L 641 3500 
L 641 4494 
L 1759 4494 
z
" transform="scale(0.015625)"/>
      <path id="DejaVuSans-Bold-42" d="M 2456 2859 
Q 2741 2859 2887 2984 
Q 3034 3109 3034 3353 
Q 3034 3594 2887 3720 
Q 2741 3847 2456 3847 
L 1791 3847 
L 1791 2859 
L 2456 2859 
z
M 2497 819 
Q 2859 819 3042 972 
Q 3225 1125 3225 1434 
Q 3225 1738 3044 1889 
Q 2863 2041 2497 2041 
L 1791 2041 
L 1791 819 
L 2497 819 
z
M 3616 2497 
Q 4003 2384 4215 2081 
Q 4428 1778 4428 1338 
Q 4428 663 3972 331 
Q 3516 0 2584 0 
L 588 0 
L 588 4666 
L 2394 4666 
Q 3366 4666 3802 4372 
Q 4238 4078 4238 3431 
Q 4238 3091 4078 2852 
Q 3919 2613 3616 2497 
z
" transform="scale(0.015625)"/>
     </defs>
     <use xlink:href="#DejaVuSans-Bold-44"/>
     <use xlink:href="#DejaVuSans-Bold-65" transform="translate(83.007812 0)"/>
     <use xlink:href="#DejaVuSans-Bold-63" transform="translate(150.830078 0)"/>
     <use xlink:href="#DejaVuSans-Bold-65" transform="translate(210.107422 0)"/>
     <use xlink:href="#DejaVuSans-Bold-6e" transform="translate(277.929688 0)"/>
     <use xlink:href="#DejaVuSans-Bold-74" transform="translate(349.121094 0)"/>
     <use xlink:href="#DejaVuSans-Bold-44" transform="translate(396.923828 0)"/>
     <use xlink:href="#DejaVuSans-Bold-42" transform="translate(479.931641 0)"/>
    </g>
   </g>
   <g id="line2d_20">
    <path d="M 77.282189 220.001262 
L 121.824539 221.641498 
L 177.502477 237.010045 
L 344.53629 251.294711 
L 622.925978 264.953694 
" clip-path="url(#pbd58556ef6)" style="fill: none; stroke: #dc2626; stroke-opacity: 0.9; stroke-width: 2; stroke-linecap: square"/>
    <defs>
     <path id="meef2c2ddc7" d="M 0 2.5 
C 0.663008 2.5 1.29895 2.236584 1.767767 1.767767 
C 2.236584 1.29895 2.5 0.663008 2.5 0 
C 2.5 -0.663008 2.236584 -1.29895 1.767767 -1.767767 
C 1.29895 -2.236584 0.663008 -2.5 0 -2.5 
C -0.663008 -2.5 -1.29895 -2.236584 -1.767767 -1.767767 
C -2.236584 -1.29895 -2.5 -0.663008 -2.5 0 
C -2.5 0.663008 -2.236584 1.29895 -1.767767 1.767767 
C -1.29895 2.236584 -0.663008 2.5 0 2.5 
z
" style="stroke: #dc2626; stroke-opacity: 0.9"/>
    </defs>
    <g clip-path="url(#pbd58556ef6)">
     <use xlink:href="#meef2c2ddc7" x="77.282189" y="220.001262" style="fill: #dc2626; fill-opacity: 0.9; stroke: #dc2626; stroke-opacity: 0.9"/>
     <use xlink:href="#meef2c2ddc7" x="121.824539" y="221.641498" style="fill: #dc2626; fill-opacity: 0.9; stroke: #dc2626; stroke-opacity: 0.9"/>
     <use xlink:href="#meef2c2ddc7" x="177.502477" y="237.010045" style="fill: #dc2626; fill-opacity: 0.9; stroke: #dc2626; stroke-opacity: 0.9"/>
     <use xlink:href="#meef2c2ddc7" x="344.53629" y="251.294711" style="fill: #dc2626; fill-opacity: 0.9; stroke: #dc2626; stroke-opacity: 0.9"/>
     <use xlink:href="#meef2c2ddc7" x="622.925978" y="264.953694" style="fill: #dc2626; fill-opacity: 0.9; stroke: #dc2626; stroke-opacity: 0.9"/>
    </g>
   </g>
   <g id="line2d_21">
    <path d="M 77.282189 47.280648 
L 121.824539 58.667396 
L 177.502477 46.013656 
L 344.53629 57.817874 
L 622.925978 55.125822 
" clip-path="url(#pbd58556ef6)" style="fill: none; stroke: #2563eb; stroke-opacity: 0.9; stroke-width: 2; stroke-linecap: square"/>
    <defs>
     <path id="mb30b075485" d="M 0 2.5 
C 0.663008 2.5 1.29895 2.236584 1.767767 1.767767 
C 2.236584 1.29895 2.5 0.663008 2.5 0 
C 2.5 -0.663008 2.236584 -1.29895 1.767767 -1.767767 
C 1.29895 -2.236584 0.663008 -2.5 0 -2.5 
C -0.663008 -2.5 -1.29895 -2.236584 -1.767767 -1.767767 
C -2.236584 -1.29895 -2.5 -0.663008 -2.5 0 
C -2.5 0.663008 -2.236584 1.29895 -1.767767 1.767767 
C -1.29895 2.236584 -0.663008 2.5 0 2.5 
z
" style="stroke: #2563eb; stroke-opacity: 0.9"/>
    </defs>
    <g clip-path="url(#pbd58556ef6)">
     <use xlink:href="#mb30b075485" x="77.282189" y="47.280648" style="fill: #2563eb; fill-opacity: 0.9; stroke: #2563eb; stroke-opacity: 0.9"/>
     <use xlink:href="#mb30b075485" x="121.824539" y="58.667396" style="fill: #2563eb; fill-opacity: 0.9; stroke: #2563eb; stroke-opacity: 0.9"/>
     <use xlink:href="#mb30b075485" x="177.502477" y="46.013656" style="fill: #2563eb; fill-opacity: 0.9; stroke: #2563eb; stroke-opacity: 0.9"/>
     <use xlink:href="#mb30b075485" x="344.53629" y="57.817874" style="fill: #2563eb; fill-opacity: 0.9; stroke: #2563eb; stroke-opacity: 0.9"/>
     <use xlink:href="#mb30b075485" x="622.925978" y="55.125822" style="fill: #2563eb; fill-opacity: 0.9; stroke: #2563eb; stroke-opacity: 0.9"/>
    </g>
   </g>
   <g id="line2d_22">
    <path d="M 77.282189 259.355308 
L 121.824539 272.231062 
L 177.502477 273.006031 
L 344.53629 292.42522 
L 622.925978 303.133656 
" clip-path="url(#pbd58556ef6)" style="fill: none; stroke: #ca8a04; stroke-opacity: 0.9; stroke-width: 2; stroke-linecap: square"/>
    <defs>
     <path id="mf95edc30bb" d="M 0 2.5 
C 0.663008 2.5 1.29895 2.236584 1.767767 1.767767 
C 2.236584 1.29895 2.5 0.663008 2.5 0 
C 2.5 -0.663008 2.236584 -1.29895 1.767767 -1.767767 
C 1.29895 -2.236584 0.663008 -2.5 0 -2.5 
C -0.663008 -2.5 -1.29895 -2.236584 -1.767767 -1.767767 
C -2.236584 -1.29895 -2.5 -0.663008 -2.5 0 
C -2.5 0.663008 -2.236584 1.29895 -1.767767 1.767767 
C -1.29895 2.236584 -0.663008 2.5 0 2.5 
z
" style="stroke: #ca8a04; stroke-opacity: 0.9"/>
    </defs>
    <g clip-path="url(#pbd58556ef6)">
     <use xlink:href="#mf95edc30bb" x="77.282189" y="259.355308" style="fill: #ca8a04; fill-opacity: 0.9; stroke: #ca8a04; stroke-opacity: 0.9"/>
     <use xlink:href="#mf95edc30bb" x="121.824539" y="272.231062" style="fill: #ca8a04; fill-opacity: 0.9; stroke: #ca8a04; stroke-opacity: 0.9"/>
     <use xlink:href="#mf95edc30bb" x="177.502477" y="273.006031" style="fill: #ca8a04; fill-opacity: 0.9; stroke: #ca8a04; stroke-opacity: 0.9"/>
     <use xlink:href="#mf95edc30bb" x="344.53629" y="292.42522" style="fill: #ca8a04; fill-opacity: 0.9; stroke: #ca8a04; stroke-opacity: 0.9"/>
     <use xlink:href="#mf95edc30bb" x="622.925978" y="303.133656" style="fill: #ca8a04; fill-opacity: 0.9; stroke: #ca8a04; stroke-opacity: 0.9"/>
    </g>
   </g>
   <g id="line2d_23">
    <path d="M 77.282189 122.86445 
L 121.824539 204.057656 
L 177.502477 193.345355 
L 344.53629 212.349054 
L 622.925978 228.707258 
" clip-path="url(#pbd58556ef6)" style="fill: none; stroke: #9333ea; stroke-opacity: 0.9; stroke-width: 2; stroke-linecap: square"/>
    <defs>
     <path id="m31d7dcc7d4" d="M 0 2.5 
C 0.663008 2.5 1.29895 2.236584 1.767767 1.767767 
C 2.236584 1.29895 2.5 0.663008 2.5 0 
C 2.5 -0.663008 2.236584 -1.29895 1.767767 -1.767767 
C 1.29895 -2.236584 0.663008 -2.5 0 -2.5 
C -0.663008 -2.5 -1.29895 -2.236584 -1.767767 -1.767767 
C -2.236584 -1.29895 -2.5 -0.663008 -2.5 0 
C -2.5 0.663008 -2.236584 1.29895 -1.767767 1.767767 
C -1.29895 2.236584 -0.663008 2.5 0 2.5 
z
" style="stroke: #9333ea; stroke-opacity: 0.9"/>
    </defs>
    <g clip-path="url(#pbd58556ef6)">
     <use xlink:href="#m31d7dcc7d4" x="77.282189" y="122.86445" style="fill: #9333ea; fill-opacity: 0.9; stroke: #9333ea; stroke-opacity: 0.9"/>
     <use xlink:href="#m31d7dcc7d4" x="121.824539" y="204.057656" style="fill: #9333ea; fill-opacity: 0.9; stroke: #9333ea; stroke-opacity: 0.9"/>
     <use xlink:href="#m31d7dcc7d4" x="177.502477" y="193.345355" style="fill: #9333ea; fill-opacity: 0.9; stroke: #9333ea; stroke-opacity: 0.9"/>
     <use xlink:href="#m31d7dcc7d4" x="344.53629" y="212.349054" style="fill: #9333ea; fill-opacity: 0.9; stroke: #9333ea; stroke-opacity: 0.9"/>
     <use xlink:href="#m31d7dcc7d4" x="622.925978" y="228.707258" style="fill: #9333ea; fill-opacity: 0.9; stroke: #9333ea; stroke-opacity: 0.9"/>
    </g>
   </g>
   <g id="line2d_24">
    <path d="M 77.282189 221.687601 
L 121.824539 219.108982 
L 177.502477 218.380196 
L 344.53629 221.489924 
L 622.925978 221.486682 
" clip-path="url(#pbd58556ef6)" style="fill: none; stroke: #059669; stroke-opacity: 0.9; stroke-width: 2; stroke-linecap: square"/>
    <defs>
     <path id="m50420a2eb0" d="M 0 2.5 
C 0.663008 2.5 1.29895 2.236584 1.767767 1.767767 
C 2.236584 1.29895 2.5 0.663008 2.5 0 
C 2.5 -0.663008 2.236584 -1.29895 1.767767 -1.767767 
C 1.29895 -2.236584 0.663008 -2.5 0 -2.5 
C -0.663008 -2.5 -1.29895 -2.236584 -1.767767 -1.767767 
C -2.236584 -1.29895 -2.5 -0.663008 -2.5 0 
C -2.5 0.663008 -2.236584 1.29895 -1.767767 1.767767 
C -1.29895 2.236584 -0.663008 2.5 0 2.5 
z
" style="stroke: #059669; stroke-opacity: 0.9"/>
    </defs>
    <g clip-path="url(#pbd58556ef6)">
     <use xlink:href="#m50420a2eb0" x="77.282189" y="221.687601" style="fill: #059669; fill-opacity: 0.9; stroke: #059669; stroke-opacity: 0.9"/>
     <use xlink:href="#m50420a2eb0" x="121.824539" y="219.108982" style="fill: #059669; fill-opacity: 0.9; stroke: #059669; stroke-opacity: 0.9"/>
     <use xlink:href="#m50420a2eb0" x="177.502477" y="218.380196" style="fill: #059669; fill-opacity: 0.9; stroke: #059669; stroke-opacity: 0.9"/>
     <use xlink:href="#m50420a2eb0" x="344.53629" y="221.489924" style="fill: #059669; fill-opacity: 0.9; stroke: #059669; stroke-opacity: 0.9"/>
     <use xlink:href="#m50420a2eb0" x="622.925978" y="221.486682" style="fill: #059669; fill-opacity: 0.9; stroke: #059669; stroke-opacity: 0.9"/>
    </g>
   </g>
   <g id="text_16">
    <g id="patch_7">
     <path d="M 281.616193 394.4944 
L 418.591974 394.4944 
Q 421.741974 394.4944 421.741974 391.3444 
L 421.741974 372.556056 
Q 421.741974 369.406056 418.591974 369.406056 
L 281.616193 369.406056 
Q 278.466193 369.406056 278.466193 372.556056 
L 278.466193 391.3444 
Q 278.466193 394.4944 281.616193 394.4944 
z
" style="fill: #f8fafc; stroke: #111827; stroke-linejoin: miter"/>
    </g>
    <!-- DecentDB: 5th of 6 at 500 ops -->
    <g style="fill: #111827" transform="translate(281.616193 379.39465) scale(0.09 -0.09)">
     <defs>
      <path id="DejaVuSans-44" d="M 1259 4147 
L 1259 519 
L 2022 519 
Q 2988 519 3436 956 
Q 3884 1394 3884 2338 
Q 3884 3275 3436 3711 
Q 2988 4147 2022 4147 
L 1259 4147 
z
M 628 4666 
L 1925 4666 
Q 3281 4666 3915 4102 
Q 4550 3538 4550 2338 
Q 4550 1131 3912 565 
Q 3275 0 1925 0 
L 628 0 
L 628 4666 
z
" transform="scale(0.015625)"/>
      <path id="DejaVuSans-42" d="M 1259 2228 
L 1259 519 
L 2272 519 
Q 2781 519 3026 730 
Q 3272 941 3272 1375 
Q 3272 1813 3026 2020 
Q 2781 2228 2272 2228 
L 1259 2228 
z
M 1259 4147 
L 1259 2741 
L 2194 2741 
Q 2656 2741 2882 2914 
Q 3109 3088 3109 3444 
Q 3109 3797 2882 3972 
Q 2656 4147 2194 4147 
L 1259 4147 
z
M 628 4666 
L 2241 4666 
Q 2963 4666 3353 4366 
Q 3744 4066 3744 3513 
Q 3744 3084 3544 2831 
Q 3344 2578 2956 2516 
Q 3422 2416 3680 2098 
Q 3938 1781 3938 1306 
Q 3938 681 3513 340 
Q 3088 0 2303 0 
L 628 0 
L 628 4666 
z
" transform="scale(0.015625)"/>
      <path id="DejaVuSans-3a" d="M 750 794 
L 1409 794 
L 1409 0 
L 750 0 
L 750 794 
z
M 750 3309 
L 1409 3309 
L 1409 2516 
L 750 2516 
L 750 3309 
z
" transform="scale(0.015625)"/>
      <path id="DejaVuSans-68" d="M 3513 2113 
L 3513 0 
L 2938 0 
L 2938 2094 
Q 2938 2591 2744 2837 
Q 2550 3084 2163 3084 
Q 1697 3084 1428 2787 
Q 1159 2491 1159 1978 
L 1159 0 
L 581 0 
L 581 4863 
L 1159 4863 
L 1159 2956 
Q 1366 3272 1645 3428 
Q 1925 3584 2291 3584 
Q 2894 3584 3203 3211 
Q 3513 2838 3513 2113 
z
" transform="scale(0.015625)"/>
      <path id="DejaVuSans-66" d="M 2375 4863 
L 2375 4384 
L 1825 4384 
Q 1516 4384 1395 4259 
Q 1275 4134 1275 3809 
L 1275 3500 
L 2222 3500 
L 2222 3053 
L 1275 3053 
L 1275 0 
L 697 0 
L 697 3053 
L 147 3053 
L 147 3500 
L 697 3500 
L 697 3744 
Q 697 4328 969 4595 
Q 1241 4863 1831 4863 
L 2375 4863 
z
" transform="scale(0.015625)"/>
      <path id="DejaVuSans-73" d="M 2834 3397 
L 2834 2853 
Q 2591 2978 2328 3040 
Q 2066 3103 1784 3103 
Q 1356 3103 1142 2972 
Q 928 2841 928 2578 
Q 928 2378 1081 2264 
Q 1234 2150 1697 2047 
L 1894 2003 
Q 2506 1872 2764 1633 
Q 3022 1394 3022 966 
Q 3022 478 2636 193 
Q 2250 -91 1575 -91 
Q 1294 -91 989 -36 
Q 684 19 347 128 
L 347 722 
Q 666 556 975 473 
Q 1284 391 1588 391 
Q 1994 391 2212 530 
Q 2431 669 2431 922 
Q 2431 1156 2273 1281 
Q 2116 1406 1581 1522 
L 1381 1569 
Q 847 1681 609 1914 
Q 372 2147 372 2553 
Q 372 3047 722 3315 
Q 1072 3584 1716 3584 
Q 2034 3584 2315 3537 
Q 2597 3491 2834 3397 
z
" transform="scale(0.015625)"/>
     </defs>
     <use xlink:href="#DejaVuSans-44"/>
     <use xlink:href="#DejaVuSans-65" transform="translate(77.001953 0)"/>
     <use xlink:href="#DejaVuSans-63" transform="translate(138.525391 0)"/>
     <use xlink:href="#DejaVuSans-65" transform="translate(193.505859 0)"/>
     <use xlink:href="#DejaVuSans-6e" transform="translate(255.029297 0)"/>
     <use xlink:href="#DejaVuSans-74" transform="translate(318.408203 0)"/>
     <use xlink:href="#DejaVuSans-44" transform="translate(357.617188 0)"/>
     <use xlink:href="#DejaVuSans-42" transform="translate(434.619141 0)"/>
     <use xlink:href="#DejaVuSans-3a" transform="translate(503.222656 0)"/>
     <use xlink:href="#DejaVuSans-20" transform="translate(536.914062 0)"/>
     <use xlink:href="#DejaVuSans-35" transform="translate(568.701172 0)"/>
     <use xlink:href="#DejaVuSans-74" transform="translate(632.324219 0)"/>
     <use xlink:href="#DejaVuSans-68" transform="translate(671.533203 0)"/>
     <use xlink:href="#DejaVuSans-20" transform="translate(734.912109 0)"/>
     <use xlink:href="#DejaVuSans-6f" transform="translate(766.699219 0)"/>
     <use xlink:href="#DejaVuSans-66" transform="translate(827.880859 0)"/>
     <use xlink:href="#DejaVuSans-20" transform="translate(863.085938 0)"/>
     <use xlink:href="#DejaVuSans-36" transform="translate(894.873047 0)"/>
     <use xlink:href="#DejaVuSans-20" transform="translate(958.496094 0)"/>
     <use xlink:href="#DejaVuSans-61" transform="translate(990.283203 0)"/>
     <use xlink:href="#DejaVuSans-74" transform="translate(1051.5625 0)"/>
     <use xlink:href="#DejaVuSans-20" transform="translate(1090.771484 0)"/>
     <use xlink:href="#DejaVuSans-35" transform="translate(1122.558594 0)"/>
     <use xlink:href="#DejaVuSans-30" transform="translate(1186.181641 0)"/>
     <use xlink:href="#DejaVuSans-30" transform="translate(1249.804688 0)"/>
     <use xlink:href="#DejaVuSans-20" transform="translate(1313.427734 0)"/>
     <use xlink:href="#DejaVuSans-6f" transform="translate(1345.214844 0)"/>
     <use xlink:href="#DejaVuSans-70" transform="translate(1406.396484 0)"/>
     <use xlink:href="#DejaVuSans-73" transform="translate(1469.873047 0)"/>
    </g>
    <!-- (15.2x slower than #1) -->
    <g style="fill: #111827" transform="translate(298.112912 389.472681) scale(0.09 -0.09)">
     <defs>
      <path id="DejaVuSans-2e" d="M 684 794 
L 1344 794 
L 1344 0 
L 684 0 
L 684 794 
z
" transform="scale(0.015625)"/>
      <path id="DejaVuSans-78" d="M 3513 3500 
L 2247 1797 
L 3578 0 
L 2900 0 
L 1881 1375 
L 863 0 
L 184 0 
L 1544 1831 
L 300 3500 
L 978 3500 
L 1906 2253 
L 2834 3500 
L 3513 3500 
z
" transform="scale(0.015625)"/>
      <path id="DejaVuSans-6c" d="M 603 4863 
L 1178 4863 
L 1178 0 
L 603 0 
L 603 4863 
z
" transform="scale(0.015625)"/>
      <path id="DejaVuSans-77" d="M 269 3500 
L 844 3500 
L 1563 769 
L 2278 3500 
L 2956 3500 
L 3675 769 
L 4391 3500 
L 4966 3500 
L 4050 0 
L 3372 0 
L 2619 2869 
L 1863 0 
L 1184 0 
L 269 3500 
z
" transform="scale(0.015625)"/>
      <path id="DejaVuSans-23" d="M 3272 2816 
L 2363 2816 
L 2100 1772 
L 3016 1772 
L 3272 2816 
z
M 2803 4594 
L 2478 3297 
L 3391 3297 
L 3719 4594 
L 4219 4594 
L 3897 3297 
L 4872 3297 
L 4872 2816 
L 3775 2816 
L 3519 1772 
L 4513 1772 
L 4513 1294 
L 3397 1294 
L 3072 0 
L 2572 0 
L 2894 1294 
L 1978 1294 
L 1656 0 
L 1153 0 
L 1478 1294 
L 494 1294 
L 494 1772 
L 1594 1772 
L 1856 2816 
L 850 2816 
L 850 3297 
L 1978 3297 
L 2297 4594 
L 2803 4594 
z
" transform="scale(0.015625)"/>
     </defs>
     <use xlink:href="#DejaVuSans-28"/>
     <use xlink:href="#DejaVuSans-31" transform="translate(39.013672 0)"/>
     <use xlink:href="#DejaVuSans-35" transform="translate(102.636719 0)"/>
     <use xlink:href="#DejaVuSans-2e" transform="translate(166.259766 0)"/>
     <use xlink:href="#DejaVuSans-32" transform="translate(198.046875 0)"/>
     <use xlink:href="#DejaVuSans-78" transform="translate(261.669922 0)"/>
     <use xlink:href="#DejaVuSans-20" transform="translate(320.849609 0)"/>
     <use xlink:href="#DejaVuSans-73" transform="translate(352.636719 0)"/>
     <use xlink:href="#DejaVuSans-6c" transform="translate(404.736328 0)"/>
     <use xlink:href="#DejaVuSans-6f" transform="translate(432.519531 0)"/>
     <use xlink:href="#DejaVuSans-77" transform="translate(493.701172 0)"/>
     <use xlink:href="#DejaVuSans-65" transform="translate(575.488281 0)"/>
     <use xlink:href="#DejaVuSans-72" transform="translate(637.011719 0)"/>
     <use xlink:href="#DejaVuSans-20" transform="translate(678.125 0)"/>
     <use xlink:href="#DejaVuSans-74" transform="translate(709.912109 0)"/>
     <use xlink:href="#DejaVuSans-68" transform="translate(749.121094 0)"/>
     <use xlink:href="#DejaVuSans-61" transform="translate(812.5 0)"/>
     <use xlink:href="#DejaVuSans-6e" transform="translate(873.779297 0)"/>
     <use xlink:href="#DejaVuSans-20" transform="translate(937.158203 0)"/>
     <use xlink:href="#DejaVuSans-23" transform="translate(968.945312 0)"/>
     <use xlink:href="#DejaVuSans-31" transform="translate(1052.734375 0)"/>
     <use xlink:href="#DejaVuSans-29" transform="translate(1116.357422 0)"/>
    </g>
   </g>
   <g id="text_17">
    <!-- Update Latency -->
    <g style="fill: #0f172a" transform="translate(290.911505 17.157656) scale(0.15 -0.15)">
     <defs>
      <path id="DejaVuSans-55" d="M 556 4666 
L 1191 4666 
L 1191 1831 
Q 1191 1081 1462 751 
Q 1734 422 2344 422 
Q 2950 422 3222 751 
Q 3494 1081 3494 1831 
L 3494 4666 
L 4128 4666 
L 4128 1753 
Q 4128 841 3676 375 
Q 3225 -91 2344 -91 
Q 1459 -91 1007 375 
Q 556 841 556 1753 
L 556 4666 
z
" transform="scale(0.015625)"/>
      <path id="DejaVuSans-64" d="M 2906 2969 
L 2906 4863 
L 3481 4863 
L 3481 0 
L 2906 0 
L 2906 525 
Q 2725 213 2448 61 
Q 2172 -91 1784 -91 
Q 1150 -91 751 415 
Q 353 922 353 1747 
Q 353 2572 751 3078 
Q 1150 3584 1784 3584 
Q 2172 3584 2448 3432 
Q 2725 3281 2906 2969 
z
M 947 1747 
Q 947 1113 1208 752 
Q 1469 391 1925 391 
Q 2381 391 2643 752 
Q 2906 1113 2906 1747 
Q 2906 2381 2643 2742 
Q 2381 3103 1925 3103 
Q 1469 3103 1208 2742 
Q 947 2381 947 1747 
z
" transform="scale(0.015625)"/>
     </defs>
     <use xlink:href="#DejaVuSans-55"/>
     <use xlink:href="#DejaVuSans-70" transform="translate(73.193359 0)"/>
     <use xlink:href="#DejaVuSans-64" transform="translate(136.669922 0)"/>
     <use xlink:href="#DejaVuSans-61" transform="translate(200.146484 0)"/>
     <use xlink:href="#DejaVuSans-74" transform="translate(261.425781 0)"/>
     <use xlink:href="#DejaVuSans-65" transform="translate(300.634766 0)"/>
     <use xlink:href="#DejaVuSans-20" transform="translate(362.158203 0)"/>
     <use xlink:href="#DejaVuSans-4c" transform="translate(393.945312 0)"/>
     <use xlink:href="#DejaVuSans-61" transform="translate(449.658203 0)"/>
     <use xlink:href="#DejaVuSans-74" transform="translate(510.9375 0)"/>
     <use xlink:href="#DejaVuSans-65" transform="translate(550.146484 0)"/>
     <use xlink:href="#DejaVuSans-6e" transform="translate(611.669922 0)"/>
     <use xlink:href="#DejaVuSans-63" transform="translate(675.048828 0)"/>
     <use xlink:href="#DejaVuSans-79" transform="translate(730.029297 0)"/>
    </g>
   </g>
   <g id="line2d_25">
    <path d="M 77.282189 137.635859 
L 121.824539 147.955505 
L 177.502477 163.00078 
L 344.53629 168.608294 
L 622.925978 162.014039 
" clip-path="url(#pbd58556ef6)" style="fill: none; stroke: #111827; stroke-width: 3.6; stroke-linecap: square"/>
    <defs>
     <path id="mebcc2d180f" d="M 0 4 
C 1.060812 4 2.078319 3.578535 2.828427 2.828427 
C 3.578535 2.078319 4 1.060812 4 0 
C 4 -1.060812 3.578535 -2.078319 2.828427 -2.828427 
C 2.078319 -3.578535 1.060812 -4 0 -4 
C -1.060812 -4 -2.078319 -3.578535 -2.828427 -2.828427 
C -3.578535 -2.078319 -4 -1.060812 -4 0 
C -4 1.060812 -3.578535 2.078319 -2.828427 2.828427 
C -2.078319 3.578535 -1.060812 4 0 4 
z
" style="stroke: #111827"/>
    </defs>
    <g clip-path="url(#pbd58556ef6)">
     <use xlink:href="#mebcc2d180f" x="77.282189" y="137.635859" style="fill: #111827; stroke: #111827"/>
     <use xlink:href="#mebcc2d180f" x="121.824539" y="147.955505" style="fill: #111827; stroke: #111827"/>
     <use xlink:href="#mebcc2d180f" x="177.502477" y="163.00078" style="fill: #111827; stroke: #111827"/>
     <use xlink:href="#mebcc2d180f" x="344.53629" y="168.608294" style="fill: #111827; stroke: #111827"/>
     <use xlink:href="#mebcc2d180f" x="622.925978" y="162.014039" style="fill: #111827; stroke: #111827"/>
    </g>
   </g>
   <g id="legend_1">
    <g id="line2d_26">
     <path d="M 59 46.256094 
L 69 46.256094 
L 79 46.256094 
" style="fill: none; stroke: #111827; stroke-width: 3.6; stroke-linecap: square"/>
     <g>
      <use xlink:href="#mebcc2d180f" x="69" y="46.256094" style="fill: #111827; stroke: #111827"/>
     </g>
    </g>
    <g id="text_18">
     <!-- DecentDB -->
     <g style="fill: #0f172a" transform="translate(87 49.756094) scale(0.1 -0.1)">
      <use xlink:href="#DejaVuSans-44"/>
      <use xlink:href="#DejaVuSans-65" transform="translate(77.001953 0)"/>
      <use xlink:href="#DejaVuSans-63" transform="translate(138.525391 0)"/>
      <use xlink:href="#DejaVuSans-65" transform="translate(193.505859 0)"/>
      <use xlink:href="#DejaVuSans-6e" transform="translate(255.029297 0)"/>
      <use xlink:href="#DejaVuSans-74" transform="translate(318.408203 0)"/>
      <use xlink:href="#DejaVuSans-44" transform="translate(357.617188 0)"/>
      <use xlink:href="#DejaVuSans-42" transform="translate(434.619141 0)"/>
     </g>
    </g>
    <g id="line2d_27">
     <path d="M 59 60.934219 
L 69 60.934219 
L 79 60.934219 
" style="fill: none; stroke: #dc2626; stroke-opacity: 0.9; stroke-width: 2; stroke-linecap: square"/>
     <g>
      <use xlink:href="#meef2c2ddc7" x="69" y="60.934219" style="fill: #dc2626; fill-opacity: 0.9; stroke: #dc2626; stroke-opacity: 0.9"/>
     </g>
    </g>
    <g id="text_19">
     <!-- Apache Derby(JDBC) -->
     <g style="fill: #0f172a" transform="translate(87 64.434219) scale(0.1 -0.1)">
      <defs>
       <path id="DejaVuSans-41" d="M 2188 4044 
L 1331 1722 
L 3047 1722 
L 2188 4044 
z
M 1831 4666 
L 2547 4666 
L 4325 0 
L 3669 0 
L 3244 1197 
L 1141 1197 
L 716 0 
L 50 0 
L 1831 4666 
z
" transform="scale(0.015625)"/>
       <path id="DejaVuSans-62" d="M 3116 1747 
Q 3116 2381 2855 2742 
Q 2594 3103 2138 3103 
Q 1681 3103 1420 2742 
Q 1159 2381 1159 1747 
Q 1159 1113 1420 752 
Q 1681 391 2138 391 
Q 2594 391 2855 752 
Q 3116 1113 3116 1747 
z
M 1159 2969 
Q 1341 3281 1617 3432 
Q 1894 3584 2278 3584 
Q 2916 3584 3314 3078 
Q 3713 2572 3713 1747 
Q 3713 922 3314 415 
Q 2916 -91 2278 -91 
Q 1894 -91 1617 61 
Q 1341 213 1159 525 
L 1159 0 
L 581 0 
L 581 4863 
L 1159 4863 
L 1159 2969 
z
" transform="scale(0.015625)"/>
       <path id="DejaVuSans-4a" d="M 628 4666 
L 1259 4666 
L 1259 325 
Q 1259 -519 939 -900 
Q 619 -1281 -91 -1281 
L -331 -1281 
L -331 -750 
L -134 -750 
Q 284 -750 456 -515 
Q 628 -281 628 325 
L 628 4666 
z
" transform="scale(0.015625)"/>
      </defs>
      <use xlink:href="#DejaVuSans-41"/>
      <use xlink:href="#DejaVuSans-70" transform="translate(68.408203 0)"/>
      <use xlink:href="#DejaVuSans-61" transform="translate(131.884766 0)"/>
      <use xlink:href="#DejaVuSans-63" transform="translate(193.164062 0)"/>
      <use xlink:href="#DejaVuSans-68" transform="translate(248.144531 0)"/>
      <use xlink:href="#DejaVuSans-65" transform="translate(311.523438 0)"/>
      <use xlink:href="#DejaVuSans-20" transform="translate(373.046875 0)"/>
      <use xlink:href="#DejaVuSans-44" transform="translate(404.833984 0)"/>
      <use xlink:href="#DejaVuSans-65" transform="translate(481.835938 0)"/>
      <use xlink:href="#DejaVuSans-72" transform="translate(543.359375 0)"/>
      <use xlink:href="#DejaVuSans-62" transform="translate(584.472656 0)"/>
      <use xlink:href="#DejaVuSans-79" transform="translate(647.949219 0)"/>
      <use xlink:href="#DejaVuSans-28" transform="translate(707.128906 0)"/>
      <use xlink:href="#DejaVuSans-4a" transform="translate(746.142578 0)"/>
      <use xlink:href="#DejaVuSans-44" transform="translate(775.634766 0)"/>
      <use xlink:href="#DejaVuSans-42" transform="translate(852.636719 0)"/>
      <use xlink:href="#DejaVuSans-43" transform="translate(919.490234 0)"/>
      <use xlink:href="#DejaVuSans-29" transform="translate(989.314453 0)"/>
     </g>
    </g>
    <g id="line2d_28">
     <path d="M 59 75.612344 
L 69 75.612344 
L 79 75.612344 
" style="fill: none; stroke: #2563eb; stroke-opacity: 0.9; stroke-width: 2; stroke-linecap: square"/>
     <g>
      <use xlink:href="#mb30b075485" x="69" y="75.612344" style="fill: #2563eb; fill-opacity: 0.9; stroke: #2563eb; stroke-opacity: 0.9"/>
     </g>
    </g>
    <g id="text_20">
     <!-- DuckDB -->
     <g style="fill: #0f172a" transform="translate(87 79.112344) scale(0.1 -0.1)">
      <defs>
       <path id="DejaVuSans-6b" d="M 581 4863 
L 1159 4863 
L 1159 1991 
L 2875 3500 
L 3609 3500 
L 1753 1863 
L 3688 0 
L 2938 0 
L 1159 1709 
L 1159 0 
L 581 0 
L 581 4863 
z
" transform="scale(0.015625)"/>
      </defs>
      <use xlink:href="#DejaVuSans-44"/>
      <use xlink:href="#DejaVuSans-75" transform="translate(77.001953 0)"/>
      <use xlink:href="#DejaVuSans-63" transform="translate(140.380859 0)"/>
      <use xlink:href="#DejaVuSans-6b" transform="translate(195.361328 0)"/>
      <use xlink:href="#DejaVuSans-44" transform="translate(253.271484 0)"/>
      <use xlink:href="#DejaVuSans-42" transform="translate(330.273438 0)"/>
     </g>
    </g>
    <g id="line2d_29">
     <path d="M 209.8375 46.256094 
L 219.8375 46.256094 
L 229.8375 46.256094 
" style="fill: none; stroke: #ca8a04; stroke-opacity: 0.9; stroke-width: 2; stroke-linecap: square"/>
     <g>
      <use xlink:href="#mf95edc30bb" x="219.8375" y="46.256094" style="fill: #ca8a04; fill-opacity: 0.9; stroke: #ca8a04; stroke-opacity: 0.9"/>
     </g>
    </g>
    <g id="text_21">
     <!-- H2(JDBC) -->
     <g style="fill: #0f172a" transform="translate(237.8375 49.756094) scale(0.1 -0.1)">
      <defs>
       <path id="DejaVuSans-48" d="M 628 4666 
L 1259 4666 
L 1259 2753 
L 3553 2753 
L 3553 4666 
L 4184 4666 
L 4184 0 
L 3553 0 
L 3553 2222 
L 1259 2222 
L 1259 0 
L 628 0 
L 628 4666 
z
" transform="scale(0.015625)"/>
      </defs>
      <use xlink:href="#DejaVuSans-48"/>
      <use xlink:href="#DejaVuSans-32" transform="translate(75.195312 0)"/>
      <use xlink:href="#DejaVuSans-28" transform="translate(138.818359 0)"/>
      <use xlink:href="#DejaVuSans-4a" transform="translate(177.832031 0)"/>
      <use xlink:href="#DejaVuSans-44" transform="translate(207.324219 0)"/>
      <use xlink:href="#DejaVuSans-42" transform="translate(284.326172 0)"/>
      <use xlink:href="#DejaVuSans-43" transform="translate(351.179688 0)"/>
      <use xlink:href="#DejaVuSans-29" transform="translate(421.003906 0)"/>
     </g>
    </g>
    <g id="line2d_30">
     <path d="M 209.8375 60.934219 
L 219.8375 60.934219 
L 229.8375 60.934219 
" style="fill: none; stroke: #9333ea; stroke-opacity: 0.9; stroke-width: 2; stroke-linecap: square"/>
     <g>
      <use xlink:href="#m31d7dcc7d4" x="219.8375" y="60.934219" style="fill: #9333ea; fill-opacity: 0.9; stroke: #9333ea; stroke-opacity: 0.9"/>
     </g>
    </g>
    <g id="text_22">
     <!-- HSQLDB(JDBC) -->
     <g style="fill: #0f172a" transform="translate(237.8375 64.434219) scale(0.1 -0.1)">
      <defs>
       <path id="DejaVuSans-53" d="M 3425 4513 
L 3425 3897 
Q 3066 4069 2747 4153 
Q 2428 4238 2131 4238 
Q 1616 4238 1336 4038 
Q 1056 3838 1056 3469 
Q 1056 3159 1242 3001 
Q 1428 2844 1947 2747 
L 2328 2669 
Q 3034 2534 3370 2195 
Q 3706 1856 3706 1288 
Q 3706 609 3251 259 
Q 2797 -91 1919 -91 
Q 1588 -91 1214 -16 
Q 841 59 441 206 
L 441 856 
Q 825 641 1194 531 
Q 1563 422 1919 422 
Q 2459 422 2753 634 
Q 3047 847 3047 1241 
Q 3047 1584 2836 1778 
Q 2625 1972 2144 2069 
L 1759 2144 
Q 1053 2284 737 2584 
Q 422 2884 422 3419 
Q 422 4038 858 4394 
Q 1294 4750 2059 4750 
Q 2388 4750 2728 4690 
Q 3069 4631 3425 4513 
z
" transform="scale(0.015625)"/>
       <path id="DejaVuSans-51" d="M 2522 4238 
Q 1834 4238 1429 3725 
Q 1025 3213 1025 2328 
Q 1025 1447 1429 934 
Q 1834 422 2522 422 
Q 3209 422 3611 934 
Q 4013 1447 4013 2328 
Q 4013 3213 3611 3725 
Q 3209 4238 2522 4238 
z
M 3406 84 
L 4238 -825 
L 3475 -825 
L 2784 -78 
Q 2681 -84 2626 -87 
Q 2572 -91 2522 -91 
Q 1538 -91 948 567 
Q 359 1225 359 2328 
Q 359 3434 948 4092 
Q 1538 4750 2522 4750 
Q 3503 4750 4090 4092 
Q 4678 3434 4678 2328 
Q 4678 1516 4351 937 
Q 4025 359 3406 84 
z
" transform="scale(0.015625)"/>
      </defs>
      <use xlink:href="#DejaVuSans-48"/>
      <use xlink:href="#DejaVuSans-53" transform="translate(75.195312 0)"/>
      <use xlink:href="#DejaVuSans-51" transform="translate(138.671875 0)"/>
      <use xlink:href="#DejaVuSans-4c" transform="translate(217.382812 0)"/>
      <use xlink:href="#DejaVuSans-44" transform="translate(273.095703 0)"/>
      <use xlink:href="#DejaVuSans-42" transform="translate(350.097656 0)"/>
      <use xlink:href="#DejaVuSans-28" transform="translate(418.701172 0)"/>
      <use xlink:href="#DejaVuSans-4a" transform="translate(457.714844 0)"/>
      <use xlink:href="#DejaVuSans-44" transform="translate(487.207031 0)"/>
      <use xlink:href="#DejaVuSans-42" transform="translate(564.208984 0)"/>
      <use xlink:href="#DejaVuSans-43" transform="translate(631.0625 0)"/>
      <use xlink:href="#DejaVuSans-29" transform="translate(700.886719 0)"/>
     </g>
    </g>
    <g id="line2d_31">
     <path d="M 209.8375 75.612344 
L 219.8375 75.612344 
L 229.8375 75.612344 
" style="fill: none; stroke: #059669; stroke-opacity: 0.9; stroke-width: 2; stroke-linecap: square"/>
     <g>
      <use xlink:href="#m50420a2eb0" x="219.8375" y="75.612344" style="fill: #059669; fill-opacity: 0.9; stroke: #059669; stroke-opacity: 0.9"/>
     </g>
    </g>
    <g id="text_23">
     <!-- SQLite_wal_full -->
     <g style="fill: #0f172a" transform="translate(237.8375 79.112344) scale(0.1 -0.1)">
      <defs>
       <path id="DejaVuSans-5f" d="M 3263 -1063 
L 3263 -1509 
L -63 -1509 
L -63 -1063 
L 3263 -1063 
z
" transform="scale(0.015625)"/>
      </defs>
      <use xlink:href="#DejaVuSans-53"/>
      <use xlink:href="#DejaVuSans-51" transform="translate(63.476562 0)"/>
      <use xlink:href="#DejaVuSans-4c" transform="translate(142.1875 0)"/>
      <use xlink:href="#DejaVuSans-69" transform="translate(197.900391 0)"/>
      <use xlink:href="#DejaVuSans-74" transform="translate(225.683594 0)"/>
      <use xlink:href="#DejaVuSans-65" transform="translate(264.892578 0)"/>
      <use xlink:href="#DejaVuSans-5f" transform="translate(326.416016 0)"/>
      <use xlink:href="#DejaVuSans-77" transform="translate(376.416016 0)"/>
      <use xlink:href="#DejaVuSans-61" transform="translate(458.203125 0)"/>
      <use xlink:href="#DejaVuSans-6c" transform="translate(519.482422 0)"/>
      <use xlink:href="#DejaVuSans-5f" transform="translate(547.265625 0)"/>
      <use xlink:href="#DejaVuSans-66" transform="translate(597.265625 0)"/>
      <use xlink:href="#DejaVuSans-75" transform="translate(632.470703 0)"/>
      <use xlink:href="#DejaVuSans-6c" transform="translate(695.849609 0)"/>
      <use xlink:href="#DejaVuSans-6c" transform="translate(723.632812 0)"/>
     </g>
    </g>
   </g>
  </g>
 </g>
 <defs>
  <clipPath id="pbd58556ef6">
   <rect x="50" y="33.157656" width="600.208167" height="282.832"/>
  </clipPath>
 </defs>
</svg>
