<?xml version="1.0" encoding="utf-8" standalone="no"?>
<!DOCTYPE svg PUBLIC "-//W3C//DTD SVG 1.1//EN"
  "http://www.w3.org/Graphics/SVG/1.1/DTD/svg11.dtd">
<svg xmlns:xlink="http://www.w3.org/1999/xlink" width="864pt" height="360pt" viewBox="0 0 864 360" xmlns="http://www.w3.org/2000/svg" version="1.1">
 <metadata>
  <rdf:RDF xmlns:dc="http://purl.org/dc/elements/1.1/" xmlns:cc="http://creativecommons.org/ns#" xmlns:rdf="http://www.w3.org/1999/02/22-rdf-syntax-ns#">
   <cc:Work>
    <dc:type rdf:resource="http://purl.org/dc/dcmitype/StillImage"/>
    <dc:date>2026-06-29T23:29:59.936727</dc:date>
    <dc:format>image/svg+xml</dc:format>
    <dc:creator>
     <cc:Agent>
      <dc:title>Matplotlib v3.11.0, https://matplotlib.org/</dc:title>
     </cc:Agent>
    </dc:creator>
   </cc:Work>
  </rdf:RDF>
 </metadata>
 <defs>
  <style type="text/css">*{stroke-linejoin: round; stroke-linecap: butt}</style>
 </defs>
 <g id="figure_1">
  <g id="patch_1">
   <path d="M 0 360
L 864 360
L 864 0
L 0 0
z
" style="fill: #ffffff"/>
  </g>
  <g id="axes_1">
   <g id="patch_2">
    <path d="M 45.082344 331.877656
L 853.2 331.877656
L 853.2 26.16
L 45.082344 26.16
z
" style="fill: #ffffff"/>
   </g>
   <g id="patch_3">
    <path d="M 81.814964 331.877656
L 94.591528 331.877656
L 94.591528 320.275085
L 81.814964 320.275085
z
" clip-path="url(#pce83c43c73)" style="fill: #1f77b4"/>
   </g>
   <g id="patch_4">
    <path d="M 193.609897 331.877656
L 206.386461 331.877656
L 206.386461 321.39373
L 193.609897 321.39373
z
" clip-path="url(#pce83c43c73)" style="fill: #1f77b4"/>
   </g>
   <g id="patch_5">
    <path d="M 305.40483 331.877656
L 318.181394 331.877656
L 318.181394 324.354608
L 305.40483 324.354608
z
" clip-path="url(#pce83c43c73)" style="fill: #1f77b4"/>
   </g>
   <g id="patch_6">
    <path d="M 417.199763 331.877656
L 429.976326 331.877656
L 429.976326 41.82646
L 417.199763 41.82646
z
" clip-path="url(#pce83c43c73)" style="fill: #1f77b4"/>
   </g>
   <g id="patch_7">
    <path d="M 528.994695 331.877656
L 541.771259 331.877656
L 541.771259 220.600087
L 528.994695 220.600087
z
" clip-path="url(#pce83c43c73)" style="fill: #1f77b4"/>
   </g>
   <g id="patch_8">
    <path d="M 640.789628 331.877656
L 653.566192 331.877656
L 653.566192 328.042429
L 640.789628 328.042429
z
" clip-path="url(#pce83c43c73)" style="fill: #1f77b4"/>
   </g>
   <g id="patch_9">
    <path d="M 752.584561 331.877656
L 765.361124 331.877656
L 765.361124 325.501196
L 752.584561 325.501196
z
" clip-path="url(#pce83c43c73)" style="fill: #1f77b4"/>
   </g>
   <g id="patch_10">
    <path d="M 94.591528 331.877656
L 107.368092 331.877656
L 107.368092 316.789294
L 94.591528 316.789294
z
" clip-path="url(#pce83c43c73)" style="fill: #ff7f0e"/>
   </g>
   <g id="patch_11">
    <path d="M 206.386461 331.877656
L 219.163025 331.877656
L 219.163025 321.165475
L 206.386461 321.165475
z
" clip-path="url(#pce83c43c73)" style="fill: #ff7f0e"/>
   </g>
   <g id="patch_12">
    <path d="M 318.181394 331.877656
L 330.957957 331.877656
L 330.957957 327.738396
L 318.181394 327.738396
z
" clip-path="url(#pce83c43c73)" style="fill: #ff7f0e"/>
   </g>
   <g id="patch_13">
    <path d="M 429.976326 331.877656
L 442.75289 331.877656
L 442.75289 40.717984
L 429.976326 40.717984
z
" clip-path="url(#pce83c43c73)" style="fill: #ff7f0e"/>
   </g>
   <g id="patch_14">
    <path d="M 541.771259 331.877656
L 554.547823 331.877656
L 554.547823 211.647333
L 541.771259 211.647333
z
" clip-path="url(#pce83c43c73)" style="fill: #ff7f0e"/>
   </g>
   <g id="patch_15">
    <path d="M 653.566192 331.877656
L 666.342755 331.877656
L 666.342755 327.589764
L 653.566192 327.589764
z
" clip-path="url(#pce83c43c73)" style="fill: #ff7f0e"/>
   </g>
   <g id="patch_16">
    <path d="M 765.361124 331.877656
L 778.137688 331.877656
L 778.137688 326.510865
L 765.361124 326.510865
z
" clip-path="url(#pce83c43c73)" style="fill: #ff7f0e"/>
   </g>
   <g id="patch_17">
    <path d="M 107.368092 331.877656
L 120.144656 331.877656
L 120.144656 316.950753
L 107.368092 316.950753
z
" clip-path="url(#pce83c43c73)" style="fill: #f4a261"/>
   </g>
   <g id="patch_18">
    <path d="M 219.163025 331.877656
L 231.939588 331.877656
L 231.939588 321.020004
L 219.163025 321.020004
z
" clip-path="url(#pce83c43c73)" style="fill: #f4a261"/>
   </g>
   <g id="patch_19">
    <path d="M 330.957957 331.877656
L 343.734521 331.877656
L 343.734521 327.433167
L 330.957957 327.433167
z
" clip-path="url(#pce83c43c73)" style="fill: #f4a261"/>
   </g>
   <g id="patch_20">
    <path d="M 442.75289 331.877656
L 455.529454 331.877656
L 455.529454 41.82646
L 442.75289 41.82646
z
" clip-path="url(#pce83c43c73)" style="fill: #f4a261"/>
   </g>
   <g id="patch_21">
    <path d="M 554.547823 331.877656
L 567.324386 331.877656
L 567.324386 210.892628
L 554.547823 210.892628
z
" clip-path="url(#pce83c43c73)" style="fill: #f4a261"/>
   </g>
   <g id="patch_22">
    <path d="M 666.342755 331.877656
L 679.119319 331.877656
L 679.119319 327.500464
L 666.342755 327.500464
z
" clip-path="url(#pce83c43c73)" style="fill: #f4a261"/>
   </g>
   <g id="patch_23">
    <path d="M 778.137688 331.877656
L 790.914252 331.877656
L 790.914252 326.527924
L 778.137688 326.527924
z
" clip-path="url(#pce83c43c73)" style="fill: #f4a261"/>
   </g>
   <g id="patch_24">
    <path d="M 120.144656 331.877656
L 132.921219 331.877656
L 132.921219 327.961269
L 120.144656 327.961269
z
" clip-path="url(#pce83c43c73)" style="fill: #2ca02c"/>
   </g>
   <g id="patch_25">
    <path d="M 231.939588 331.877656
L 244.716152 331.877656
L 244.716152 327.961269
L 231.939588 327.961269
z
" clip-path="url(#pce83c43c73)" style="fill: #2ca02c"/>
   </g>
   <g id="patch_26">
    <path d="M 343.734521 331.877656
L 356.511085 331.877656
L 356.511085 327.961269
L 343.734521 327.961269
z
" clip-path="url(#pce83c43c73)" style="fill: #2ca02c"/>
   </g>
   <g id="patch_27">
    <path d="M 455.529454 331.877656
L 468.306017 331.877656
L 468.306017 327.961269
L 455.529454 327.961269
z
" clip-path="url(#pce83c43c73)" style="fill: #2ca02c"/>
   </g>
   <g id="patch_28">
    <path d="M 567.324386 331.877656
L 580.10095 331.877656
L 580.10095 327.961269
L 567.324386 327.961269
z
" clip-path="url(#pce83c43c73)" style="fill: #2ca02c"/>
   </g>
   <g id="patch_29">
    <path d="M 679.119319 331.877656
L 691.895883 331.877656
L 691.895883 327.961269
L 679.119319 327.961269
z
" clip-path="url(#pce83c43c73)" style="fill: #2ca02c"/>
   </g>
   <g id="patch_30">
    <path d="M 790.914252 331.877656
L 803.690816 331.877656
L 803.690816 327.961269
L 790.914252 327.961269
z
" clip-path="url(#pce83c43c73)" style="fill: #2ca02c"/>
   </g>
   <g id="patch_31">
    <path d="M 132.921219 331.877656
L 145.697783 331.877656
L 145.697783 331.829146
L 132.921219 331.829146
z
" clip-path="url(#pce83c43c73)" style="fill: #d62728"/>
   </g>
   <g id="patch_32">
    <path d="M 244.716152 331.877656
L 257.492716 331.877656
L 257.492716 331.852097
L 244.716152 331.852097
z
" clip-path="url(#pce83c43c73)" style="fill: #d62728"/>
   </g>
   <g id="patch_33">
    <path d="M 356.511085 331.877656
L 369.287649 331.877656
L 369.287649 331.836815
L 356.511085 331.836815
z
" clip-path="url(#pce83c43c73)" style="fill: #d62728"/>
   </g>
   <g id="patch_34">
    <path d="M 468.306017 331.877656
L 481.082581 331.877656
L 481.082581 331.424014
L 468.306017 331.424014
z
" clip-path="url(#pce83c43c73)" style="fill: #d62728"/>
   </g>
   <g id="patch_35">
    <path d="M 580.10095 331.877656
L 592.877514 331.877656
L 592.877514 331.242067
L 580.10095 331.242067
z
" clip-path="url(#pce83c43c73)" style="fill: #d62728"/>
   </g>
   <g id="patch_36">
    <path d="M 691.895883 331.877656
L 704.672447 331.877656
L 704.672447 329.536231
L 691.895883 329.536231
z
" clip-path="url(#pce83c43c73)" style="fill: #d62728"/>
   </g>
   <g id="patch_37">
    <path d="M 803.690816 331.877656
L 816.467379 331.877656
L 816.467379 331.868523
L 803.690816 331.868523
z
" clip-path="url(#pce83c43c73)" style="fill: #d62728"/>
   </g>
   <g id="patch_38">
    <path d="M 145.697783 331.877656
L 158.474347 331.877656
L 158.474347 331.822871
L 145.697783 331.822871
z
" clip-path="url(#pce83c43c73)" style="fill: #9467bd"/>
   </g>
   <g id="patch_39">
    <path d="M 0 0
z
" clip-path="url(#pce83c43c73)" style="fill: #9467bd"/>
   </g>
   <g id="patch_40">
    <path d="M 0 0
z
" clip-path="url(#pce83c43c73)" style="fill: #9467bd"/>
   </g>
   <g id="patch_41">
    <path d="M 0 0
z
" clip-path="url(#pce83c43c73)" style="fill: #9467bd"/>
   </g>
   <g id="patch_42">
    <path d="M 0 0
z
" clip-path="url(#pce83c43c73)" style="fill: #9467bd"/>
   </g>
   <g id="patch_43">
    <path d="M 0 0
z
" clip-path="url(#pce83c43c73)" style="fill: #9467bd"/>
   </g>
   <g id="patch_44">
    <path d="M 0 0
z
" clip-path="url(#pce83c43c73)" style="fill: #9467bd"/>
   </g>
   <g id="patch_45">
    <path d="M 158.474347 331.877656
L 171.250911 331.877656
L 171.250911 331.807485
L 158.474347 331.807485
z
" clip-path="url(#pce83c43c73)" style="fill: #17becf"/>
   </g>
   <g id="patch_46">
    <path d="M 0 0
z
" clip-path="url(#pce83c43c73)" style="fill: #17becf"/>
   </g>
   <g id="patch_47">
    <path d="M 0 0
z
" clip-path="url(#pce83c43c73)" style="fill: #17becf"/>
   </g>
   <g id="patch_48">
    <path d="M 0 0
z
" clip-path="url(#pce83c43c73)" style="fill: #17becf"/>
   </g>
   <g id="patch_49">
    <path d="M 0 0
z
" clip-path="url(#pce83c43c73)" style="fill: #17becf"/>
   </g>
   <g id="patch_50">
    <path d="M 0 0
z
" clip-path="url(#pce83c43c73)" style="fill: #17becf"/>
   </g>
   <g id="patch_51">
    <path d="M 0 0
z
" clip-path="url(#pce83c43c73)" style="fill: #17becf"/>
   </g>
   <g id="matplotlib.axis_1">
    <g id="xtick_1">
     <g id="line2d_1">
      <defs>
       <path id="mf95bc37879" d="M 0 0
L 0 3.5
" style="stroke: #000000; stroke-width: 0.8"/>
      </defs>
      <g>
       <use xlink:href="#mf95bc37879" x="126.532938" y="331.877656" style="stroke: #000000; stroke-width: 0.8"/>
      </g>
     </g>
     <g id="text_1">
      <!-- Point read p95 (ms) -->
      <g transform="translate(77.17825 346.476094) scale(0.1 -0.1)">
       <defs>
        <path id="DejaVuSans-33" d="M 1259 4147
L 1259 2394
L 2053 2394
Q 2494 2394 2734 2622
Q 2975 2850 2975 3272
Q 2975 3691 2734 3919
Q 2494 4147 2053 4147
L 1259 4147
z
M 628 4666
L 2053 4666
Q 2838 4666 3239 4311
Q 3641 3956 3641 3272
Q 3641 2581 3239 2228
Q 2838 1875 2053 1875
L 1259 1875
L 1259 0
L 628 0
L 628 4666
z
" transform="scale(0.015625)"/>
        <path id="DejaVuSans-52" d="M 1959 3097
Q 1497 3097 1228 2736
Q 959 2375 959 1747
Q 959 1119 1226 758
Q 1494 397 1959 397
Q 2419 397 2687 759
Q 2956 1122 2956 1747
Q 2956 2369 2687 2733
Q 2419 3097 1959 3097
z
M 1959 3584
Q 2709 3584 3137 3096
Q 3566 2609 3566 1747
Q 3566 888 3137 398
Q 2709 -91 1959 -91
Q 1206 -91 779 398
Q 353 888 353 1747
Q 353 2609 779 3096
Q 1206 3584 1959 3584
z
" transform="scale(0.015625)"/>
        <path id="DejaVuSans-4c" d="M 603 3500
L 1178 3500
L 1178 0
L 603 0
L 603 3500
z
M 603 4863
L 1178 4863
L 1178 4134
L 603 4134
L 603 4863
z
" transform="scale(0.015625)"/>
        <path id="DejaVuSans-51" d="M 3513 2113
L 3513 0
L 2938 0
L 2938 2094
Q 2938 2591 2744 2837
Q 2550 3084 2163 3084
Q 1697 3084 1428 2787
Q 1159 2491 1159 1978
L 1159 0
L 581 0
L 581 3500
L 1159 3500
L 1159 2956
Q 1366 3272 1645 3428
Q 1925 3584 2291 3584
Q 2894 3584 3203 3211
Q 3513 2838 3513 2113
z
" transform="scale(0.015625)"/>
        <path id="DejaVuSans-57" d="M 1172 4494
L 1172 3500
L 2356 3500
L 2356 3053
L 1172 3053
L 1172 1153
Q 1172 725 1289 603
Q 1406 481 1766 481
L 2356 481
L 2356 0
L 1766 0
Q 1100 0 847 248
Q 594 497 594 1153
L 594 3053
L 172 3053
L 172 3500
L 594 3500
L 594 4494
L 1172 4494
z
" transform="scale(0.015625)"/>
        <path id="DejaVuSans-3" transform="scale(0.015625)"/>
        <path id="DejaVuSans-55" d="M 2631 2963
Q 2534 3019 2420 3045
Q 2306 3072 2169 3072
Q 1681 3072 1420 2755
Q 1159 2438 1159 1844
L 1159 0
L 581 0
L 581 3500
L 1159 3500
L 1159 2956
Q 1341 3275 1631 3429
Q 1922 3584 2338 3584
Q 2397 3584 2469 3576
Q 2541 3569 2628 3553
L 2631 2963
z
" transform="scale(0.015625)"/>
        <path id="DejaVuSans-48" d="M 3597 1894
L 3597 1613
L 953 1613
Q 991 1019 1311 708
Q 1631 397 2203 397
Q 2534 397 2845 478
Q 3156 559 3463 722
L 3463 178
Q 3153 47 2828 -22
Q 2503 -91 2169 -91
Q 1331 -91 842 396
Q 353 884 353 1716
Q 353 2575 817 3079
Q 1281 3584 2069 3584
Q 2775 3584 3186 3129
Q 3597 2675 3597 1894
z
M 3022 2063
Q 3016 2534 2758 2815
Q 2500 3097 2075 3097
Q 1594 3097 1305 2825
Q 1016 2553 972 2059
L 3022 2063
z
" transform="scale(0.015625)"/>
        <path id="DejaVuSans-44" d="M 2194 1759
Q 1497 1759 1228 1600
Q 959 1441 959 1056
Q 959 750 1161 570
Q 1363 391 1709 391
Q 2188 391 2477 730
Q 2766 1069 2766 1631
L 2766 1759
L 2194 1759
z
M 3341 1997
L 3341 0
L 2766 0
L 2766 531
Q 2569 213 2275 61
Q 1981 -91 1556 -91
Q 1019 -91 701 211
Q 384 513 384 1019
Q 384 1609 779 1909
Q 1175 2209 1959 2209
L 2766 2209
L 2766 2266
Q 2766 2663 2505 2880
Q 2244 3097 1772 3097
Q 1472 3097 1187 3025
Q 903 2953 641 2809
L 641 3341
Q 956 3463 1253 3523
Q 1550 3584 1831 3584
Q 2591 3584 2966 3190
Q 3341 2797 3341 1997
z
" transform="scale(0.015625)"/>
        <path id="DejaVuSans-47" d="M 2906 2969
L 2906 4863
L 3481 4863
L 3481 0
L 2906 0
L 2906 525
Q 2725 213 2448 61
Q 2172 -91 1784 -91
Q 1150 -91 751 415
Q 353 922 353 1747
Q 353 2572 751 3078
Q 1150 3584 1784 3584
Q 2172 3584 2448 3432
Q 2725 3281 2906 2969
z
M 947 1747
Q 947 1113 1208 752
Q 1469 391 1925 391
Q 2381 391 2643 752
Q 2906 1113 2906 1747
Q 2906 2381 2643 2742
Q 2381 3103 1925 3103
Q 1469 3103 1208 2742
Q 947 2381 947 1747
z
" transform="scale(0.015625)"/>
        <path id="DejaVuSans-53" d="M 1159 525
L 1159 -1331
L 581 -1331
L 581 3500
L 1159 3500
L 1159 2969
Q 1341 3281 1617 3432
Q 1894 3584 2278 3584
Q 2916 3584 3314 3078
Q 3713 2572 3713 1747
Q 3713 922 3314 415
Q 2916 -91 2278 -91
Q 1894 -91 1617 61
Q 1341 213 1159 525
z
M 3116 1747
Q 3116 2381 2855 2742
Q 2594 3103 2138 3103
Q 1681 3103 1420 2742
Q 1159 2381 1159 1747
Q 1159 1113 1420 752
Q 1681 391 2138 391
Q 2594 391 2855 752
Q 3116 1113 3116 1747
z
" transform="scale(0.015625)"/>
        <path id="DejaVuSans-1c" d="M 703 97
L 703 672
Q 941 559 1184 500
Q 1428 441 1663 441
Q 2288 441 2617 861
Q 2947 1281 2994 2138
Q 2813 1869 2534 1725
Q 2256 1581 1919 1581
Q 1219 1581 811 2004
Q 403 2428 403 3163
Q 403 3881 828 4315
Q 1253 4750 1959 4750
Q 2769 4750 3195 4129
Q 3622 3509 3622 2328
Q 3622 1225 3098 567
Q 2575 -91 1691 -91
Q 1453 -91 1209 -44
Q 966 3 703 97
z
M 1959 2075
Q 2384 2075 2632 2365
Q 2881 2656 2881 3163
Q 2881 3666 2632 3958
Q 2384 4250 1959 4250
Q 1534 4250 1286 3958
Q 1038 3666 1038 3163
Q 1038 2656 1286 2365
Q 1534 2075 1959 2075
z
" transform="scale(0.015625)"/>
        <path id="DejaVuSans-18" d="M 691 4666
L 3169 4666
L 3169 4134
L 1269 4134
L 1269 2991
Q 1406 3038 1543 3061
Q 1681 3084 1819 3084
Q 2600 3084 3056 2656
Q 3513 2228 3513 1497
Q 3513 744 3044 326
Q 2575 -91 1722 -91
Q 1428 -91 1123 -41
Q 819 9 494 109
L 494 744
Q 775 591 1075 516
Q 1375 441 1709 441
Q 2250 441 2565 725
Q 2881 1009 2881 1497
Q 2881 1984 2565 2268
Q 2250 2553 1709 2553
Q 1456 2553 1204 2497
Q 953 2441 691 2322
L 691 4666
z
" transform="scale(0.015625)"/>
        <path id="DejaVuSans-b" d="M 1984 4856
Q 1566 4138 1362 3434
Q 1159 2731 1159 2009
Q 1159 1288 1364 580
Q 1569 -128 1984 -844
L 1484 -844
Q 1016 -109 783 600
Q 550 1309 550 2009
Q 550 2706 781 3412
Q 1013 4119 1484 4856
L 1984 4856
z
" transform="scale(0.015625)"/>
        <path id="DejaVuSans-50" d="M 3328 2828
Q 3544 3216 3844 3400
Q 4144 3584 4550 3584
Q 5097 3584 5394 3201
Q 5691 2819 5691 2113
L 5691 0
L 5113 0
L 5113 2094
Q 5113 2597 4934 2840
Q 4756 3084 4391 3084
Q 3944 3084 3684 2787
Q 3425 2491 3425 1978
L 3425 0
L 2847 0
L 2847 2094
Q 2847 2600 2669 2842
Q 2491 3084 2119 3084
Q 1678 3084 1418 2786
Q 1159 2488 1159 1978
L 1159 0
L 581 0
L 581 3500
L 1159 3500
L 1159 2956
Q 1356 3278 1631 3431
Q 1906 3584 2284 3584
Q 2666 3584 2933 3390
Q 3200 3197 3328 2828
z
" transform="scale(0.015625)"/>
        <path id="DejaVuSans-56" d="M 2834 3397
L 2834 2853
Q 2591 2978 2328 3040
Q 2066 3103 1784 3103
Q 1356 3103 1142 2972
Q 928 2841 928 2578
Q 928 2378 1081 2264
Q 1234 2150 1697 2047
L 1894 2003
Q 2506 1872 2764 1633
Q 3022 1394 3022 966
Q 3022 478 2636 193
Q 2250 -91 1575 -91
Q 1294 -91 989 -36
Q 684 19 347 128
L 347 722
Q 666 556 975 473
Q 1284 391 1588 391
Q 1994 391 2212 530
Q 2431 669 2431 922
Q 2431 1156 2273 1281
Q 2116 1406 1581 1522
L 1381 1569
Q 847 1681 609 1914
Q 372 2147 372 2553
Q 372 3047 722 3315
Q 1072 3584 1716 3584
Q 2034 3584 2315 3537
Q 2597 3491 2834 3397
z
" transform="scale(0.015625)"/>
        <path id="DejaVuSans-c" d="M 513 4856
L 1013 4856
Q 1481 4119 1714 3412
Q 1947 2706 1947 2009
Q 1947 1309 1714 600
Q 1481 -109 1013 -844
L 513 -844
Q 928 -128 1133 580
Q 1338 1288 1338 2009
Q 1338 2731 1133 3434
Q 928 4138 513 4856
z
" transform="scale(0.015625)"/>
       </defs>
       <use xlink:href="#DejaVuSans-33"/>
       <use xlink:href="#DejaVuSans-52" transform="translate(56.734375 0)"/>
       <use xlink:href="#DejaVuSans-4c" transform="translate(117.921875 0)"/>
       <use xlink:href="#DejaVuSans-51" transform="translate(145.703125 0)"/>
       <use xlink:href="#DejaVuSans-57" transform="translate(209.078125 0)"/>
       <use xlink:href="#DejaVuSans-3" transform="translate(248.28125 0)"/>
       <use xlink:href="#DejaVuSans-55" transform="translate(280.0625 0)"/>
       <use xlink:href="#DejaVuSans-48" transform="translate(318.96875 0)"/>
       <use xlink:href="#DejaVuSans-44" transform="translate(380.5 0)"/>
       <use xlink:href="#DejaVuSans-47" transform="translate(441.78125 0)"/>
       <use xlink:href="#DejaVuSans-3" transform="translate(505.265625 0)"/>
       <use xlink:href="#DejaVuSans-53" transform="translate(537.046875 0)"/>
       <use xlink:href="#DejaVuSans-1c" transform="translate(600.53125 0)"/>
       <use xlink:href="#DejaVuSans-18" transform="translate(664.15625 0)"/>
       <use xlink:href="#DejaVuSans-3" transform="translate(727.78125 0)"/>
       <use xlink:href="#DejaVuSans-b" transform="translate(759.5625 0)"/>
       <use xlink:href="#DejaVuSans-50" transform="translate(798.578125 0)"/>
       <use xlink:href="#DejaVuSans-56" transform="translate(895.984375 0)"/>
       <use xlink:href="#DejaVuSans-c" transform="translate(948.078125 0)"/>
      </g>
     </g>
    </g>
    <g id="xtick_2">
     <g id="line2d_2">
      <g>
       <use xlink:href="#mf95bc37879" x="238.32787" y="331.877656" style="stroke: #000000; stroke-width: 0.8"/>
      </g>
     </g>
     <g id="text_2">
      <!-- Join p95 (ms) -->
      <g transform="translate(205.144276 346.476094) scale(0.1 -0.1)">
       <defs>
        <path id="DejaVuSans-2d" d="M 628 4666
L 1259 4666
L 1259 325
Q 1259 -519 939 -900
Q 619 -1281 -91 -1281
L -331 -1281
L -331 -750
L -134 -750
Q 284 -750 456 -515
Q 628 -281 628 325
L 628 4666
z
" transform="scale(0.015625)"/>
       </defs>
       <use xlink:href="#DejaVuSans-2d"/>
       <use xlink:href="#DejaVuSans-52" transform="translate(29.5 0)"/>
       <use xlink:href="#DejaVuSans-4c" transform="translate(90.6875 0)"/>
       <use xlink:href="#DejaVuSans-51" transform="translate(118.46875 0)"/>
       <use xlink:href="#DejaVuSans-3" transform="translate(181.84375 0)"/>
       <use xlink:href="#DejaVuSans-53" transform="translate(213.625 0)"/>
       <use xlink:href="#DejaVuSans-1c" transform="translate(277.109375 0)"/>
       <use xlink:href="#DejaVuSans-18" transform="translate(340.734375 0)"/>
       <use xlink:href="#DejaVuSans-3" transform="translate(404.359375 0)"/>
       <use xlink:href="#DejaVuSans-b" transform="translate(436.140625 0)"/>
       <use xlink:href="#DejaVuSans-50" transform="translate(475.15625 0)"/>
       <use xlink:href="#DejaVuSans-56" transform="translate(572.5625 0)"/>
       <use xlink:href="#DejaVuSans-c" transform="translate(624.65625 0)"/>
      </g>
     </g>
    </g>
    <g id="xtick_3">
     <g id="line2d_3">
      <g>
       <use xlink:href="#mf95bc37879" x="350.122803" y="331.877656" style="stroke: #000000; stroke-width: 0.8"/>
      </g>
     </g>
     <g id="text_3">
      <!-- Range scan p95 (ms) -->
      <g transform="translate(297.007959 346.475312) scale(0.1 -0.1)">
       <defs>
        <path id="DejaVuSans-35" d="M 2841 2188
Q 3044 2119 3236 1894
Q 3428 1669 3622 1275
L 4263 0
L 3584 0
L 2988 1197
Q 2756 1666 2539 1819
Q 2322 1972 1947 1972
L 1259 1972
L 1259 0
L 628 0
L 628 4666
L 2053 4666
Q 2853 4666 3247 4331
Q 3641 3997 3641 3322
Q 3641 2881 3436 2590
Q 3231 2300 2841 2188
z
M 1259 4147
L 1259 2491
L 2053 2491
Q 2509 2491 2742 2702
Q 2975 2913 2975 3322
Q 2975 3731 2742 3939
Q 2509 4147 2053 4147
L 1259 4147
z
" transform="scale(0.015625)"/>
        <path id="DejaVuSans-4a" d="M 2906 1791
Q 2906 2416 2648 2759
Q 2391 3103 1925 3103
Q 1463 3103 1205 2759
Q 947 2416 947 1791
Q 947 1169 1205 825
Q 1463 481 1925 481
Q 2391 481 2648 825
Q 2906 1169 2906 1791
z
M 3481 434
Q 3481 -459 3084 -895
Q 2688 -1331 1869 -1331
Q 1566 -1331 1297 -1286
Q 1028 -1241 775 -1147
L 775 -588
Q 1028 -725 1275 -790
Q 1522 -856 1778 -856
Q 2344 -856 2625 -561
Q 2906 -266 2906 331
L 2906 616
Q 2728 306 2450 153
Q 2172 0 1784 0
Q 1141 0 747 490
Q 353 981 353 1791
Q 353 2603 747 3093
Q 1141 3584 1784 3584
Q 2172 3584 2450 3431
Q 2728 3278 2906 2969
L 2906 3500
L 3481 3500
L 3481 434
z
" transform="scale(0.015625)"/>
        <path id="DejaVuSans-46" d="M 3122 3366
L 3122 2828
Q 2878 2963 2633 3030
Q 2388 3097 2138 3097
Q 1578 3097 1268 2742
Q 959 2388 959 1747
Q 959 1106 1268 751
Q 1578 397 2138 397
Q 2388 397 2633 464
Q 2878 531 3122 666
L 3122 134
Q 2881 22 2623 -34
Q 2366 -91 2075 -91
Q 1284 -91 818 406
Q 353 903 353 1747
Q 353 2603 823 3093
Q 1294 3584 2113 3584
Q 2378 3584 2631 3529
Q 2884 3475 3122 3366
z
" transform="scale(0.015625)"/>
       </defs>
       <use xlink:href="#DejaVuSans-35"/>
       <use xlink:href="#DejaVuSans-44" transform="translate(67.28125 0)"/>
       <use xlink:href="#DejaVuSans-51" transform="translate(128.5625 0)"/>
       <use xlink:href="#DejaVuSans-4a" transform="translate(191.9375 0)"/>
       <use xlink:href="#DejaVuSans-48" transform="translate(255.421875 0)"/>
       <use xlink:href="#DejaVuSans-3" transform="translate(316.953125 0)"/>
       <use xlink:href="#DejaVuSans-56" transform="translate(348.734375 0)"/>
       <use xlink:href="#DejaVuSans-46" transform="translate(400.828125 0)"/>
       <use xlink:href="#DejaVuSans-44" transform="translate(455.8125 0)"/>
       <use xlink:href="#DejaVuSans-51" transform="translate(517.09375 0)"/>
       <use xlink:href="#DejaVuSans-3" transform="translate(580.46875 0)"/>
       <use xlink:href="#DejaVuSans-53" transform="translate(612.25 0)"/>
       <use xlink:href="#DejaVuSans-1c" transform="translate(675.734375 0)"/>
       <use xlink:href="#DejaVuSans-18" transform="translate(739.359375 0)"/>
       <use xlink:href="#DejaVuSans-3" transform="translate(802.984375 0)"/>
       <use xlink:href="#DejaVuSans-b" transform="translate(834.765625 0)"/>
       <use xlink:href="#DejaVuSans-50" transform="translate(873.78125 0)"/>
       <use xlink:href="#DejaVuSans-56" transform="translate(971.1875 0)"/>
       <use xlink:href="#DejaVuSans-c" transform="translate(1023.28125 0)"/>
      </g>
     </g>
    </g>
    <g id="xtick_4">
     <g id="line2d_4">
      <g>
       <use xlink:href="#mf95bc37879" x="461.917736" y="331.877656" style="stroke: #000000; stroke-width: 0.8"/>
      </g>
     </g>
     <g id="text_4">
      <!-- Aggregate p95 (ms) -->
      <g transform="translate(411.760704 346.475312) scale(0.1 -0.1)">
       <defs>
        <path id="DejaVuSans-24" d="M 2188 4044
L 1331 1722
L 3047 1722
L 2188 4044
z
M 1831 4666
L 2547 4666
L 4325 0
L 3669 0
L 3244 1197
L 1141 1197
L 716 0
L 50 0
L 1831 4666
z
" transform="scale(0.015625)"/>
       </defs>
       <use xlink:href="#DejaVuSans-24"/>
       <use xlink:href="#DejaVuSans-4a" transform="translate(68.40625 0)"/>
       <use xlink:href="#DejaVuSans-4a" transform="translate(131.890625 0)"/>
       <use xlink:href="#DejaVuSans-55" transform="translate(195.375 0)"/>
       <use xlink:href="#DejaVuSans-48" transform="translate(234.28125 0)"/>
       <use xlink:href="#DejaVuSans-4a" transform="translate(295.8125 0)"/>
       <use xlink:href="#DejaVuSans-44" transform="translate(359.296875 0)"/>
       <use xlink:href="#DejaVuSans-57" transform="translate(420.578125 0)"/>
       <use xlink:href="#DejaVuSans-48" transform="translate(459.78125 0)"/>
       <use xlink:href="#DejaVuSans-3" transform="translate(521.3125 0)"/>
       <use xlink:href="#DejaVuSans-53" transform="translate(553.09375 0)"/>
       <use xlink:href="#DejaVuSans-1c" transform="translate(616.578125 0)"/>
       <use xlink:href="#DejaVuSans-18" transform="translate(680.203125 0)"/>
       <use xlink:href="#DejaVuSans-3" transform="translate(743.828125 0)"/>
       <use xlink:href="#DejaVuSans-b" transform="translate(775.609375 0)"/>
       <use xlink:href="#DejaVuSans-50" transform="translate(814.625 0)"/>
       <use xlink:href="#DejaVuSans-56" transform="translate(912.03125 0)"/>
       <use xlink:href="#DejaVuSans-c" transform="translate(964.125 0)"/>
      </g>
     </g>
    </g>
    <g id="xtick_5">
     <g id="line2d_5">
      <g>
       <use xlink:href="#mf95bc37879" x="573.712668" y="331.877656" style="stroke: #000000; stroke-width: 0.8"/>
      </g>
     </g>
     <g id="text_5">
      <!-- Concurrent read p95 (ms) -->
      <g transform="translate(509.015793 346.476094) scale(0.1 -0.1)">
       <defs>
        <path id="DejaVuSans-26" d="M 4122 4306
L 4122 3641
Q 3803 3938 3442 4084
Q 3081 4231 2675 4231
Q 1875 4231 1450 3742
Q 1025 3253 1025 2328
Q 1025 1406 1450 917
Q 1875 428 2675 428
Q 3081 428 3442 575
Q 3803 722 4122 1019
L 4122 359
Q 3791 134 3420 21
Q 3050 -91 2638 -91
Q 1578 -91 968 557
Q 359 1206 359 2328
Q 359 3453 968 4101
Q 1578 4750 2638 4750
Q 3056 4750 3426 4639
Q 3797 4528 4122 4306
z
" transform="scale(0.015625)"/>
        <path id="DejaVuSans-58" d="M 544 1381
L 544 3500
L 1119 3500
L 1119 1403
Q 1119 906 1312 657
Q 1506 409 1894 409
Q 2359 409 2629 706
Q 2900 1003 2900 1516
L 2900 3500
L 3475 3500
L 3475 0
L 2900 0
L 2900 538
Q 2691 219 2414 64
Q 2138 -91 1772 -91
Q 1169 -91 856 284
Q 544 659 544 1381
z
M 1991 3584
L 1991 3584
z
" transform="scale(0.015625)"/>
       </defs>
       <use xlink:href="#DejaVuSans-26"/>
       <use xlink:href="#DejaVuSans-52" transform="translate(69.828125 0)"/>
       <use xlink:href="#DejaVuSans-51" transform="translate(131.015625 0)"/>
       <use xlink:href="#DejaVuSans-46" transform="translate(194.390625 0)"/>
       <use xlink:href="#DejaVuSans-58" transform="translate(249.375 0)"/>
       <use xlink:href="#DejaVuSans-55" transform="translate(312.75 0)"/>
       <use xlink:href="#DejaVuSans-55" transform="translate(352.109375 0)"/>
       <use xlink:href="#DejaVuSans-48" transform="translate(391.015625 0)"/>
       <use xlink:href="#DejaVuSans-51" transform="translate(452.546875 0)"/>
       <use xlink:href="#DejaVuSans-57" transform="translate(515.921875 0)"/>
       <use xlink:href="#DejaVuSans-3" transform="translate(555.125 0)"/>
       <use xlink:href="#DejaVuSans-55" transform="translate(586.90625 0)"/>
       <use xlink:href="#DejaVuSans-48" transform="translate(625.8125 0)"/>
       <use xlink:href="#DejaVuSans-44" transform="translate(687.34375 0)"/>
       <use xlink:href="#DejaVuSans-47" transform="translate(748.625 0)"/>
       <use xlink:href="#DejaVuSans-3" transform="translate(812.109375 0)"/>
       <use xlink:href="#DejaVuSans-53" transform="translate(843.890625 0)"/>
       <use xlink:href="#DejaVuSans-1c" transform="translate(907.375 0)"/>
       <use xlink:href="#DejaVuSans-18" transform="translate(971 0)"/>
       <use xlink:href="#DejaVuSans-3" transform="translate(1034.625 0)"/>
       <use xlink:href="#DejaVuSans-b" transform="translate(1066.40625 0)"/>
       <use xlink:href="#DejaVuSans-50" transform="translate(1105.421875 0)"/>
       <use xlink:href="#DejaVuSans-56" transform="translate(1202.828125 0)"/>
       <use xlink:href="#DejaVuSans-c" transform="translate(1254.921875 0)"/>
      </g>
     </g>
    </g>
    <g id="xtick_6">
     <g id="line2d_6">
      <g>
       <use xlink:href="#mf95bc37879" x="685.507601" y="331.877656" style="stroke: #000000; stroke-width: 0.8"/>
      </g>
     </g>
     <g id="text_6">
      <!-- Commit p95 (ms) -->
      <g transform="translate(641.77557 346.476094) scale(0.1 -0.1)">
       <use xlink:href="#DejaVuSans-26"/>
       <use xlink:href="#DejaVuSans-52" transform="translate(69.828125 0)"/>
       <use xlink:href="#DejaVuSans-50" transform="translate(131.015625 0)"/>
       <use xlink:href="#DejaVuSans-50" transform="translate(228.421875 0)"/>
       <use xlink:href="#DejaVuSans-4c" transform="translate(325.828125 0)"/>
       <use xlink:href="#DejaVuSans-57" transform="translate(353.609375 0)"/>
       <use xlink:href="#DejaVuSans-3" transform="translate(392.8125 0)"/>
       <use xlink:href="#DejaVuSans-53" transform="translate(424.59375 0)"/>
       <use xlink:href="#DejaVuSans-1c" transform="translate(488.078125 0)"/>
       <use xlink:href="#DejaVuSans-18" transform="translate(551.703125 0)"/>
       <use xlink:href="#DejaVuSans-3" transform="translate(615.328125 0)"/>
       <use xlink:href="#DejaVuSans-b" transform="translate(647.109375 0)"/>
       <use xlink:href="#DejaVuSans-50" transform="translate(686.125 0)"/>
       <use xlink:href="#DejaVuSans-56" transform="translate(783.53125 0)"/>
       <use xlink:href="#DejaVuSans-c" transform="translate(835.625 0)"/>
      </g>
     </g>
    </g>
    <g id="xtick_7">
     <g id="line2d_7">
      <g>
       <use xlink:href="#mf95bc37879" x="797.302534" y="331.877656" style="stroke: #000000; stroke-width: 0.8"/>
      </g>
     </g>
     <g id="text_7">
      <!-- Insert (rows/s) -->
      <g transform="translate(761.483784 346.475312) scale(0.1 -0.1)">
       <defs>
        <path id="DejaVuSans-2c" d="M 628 4666
L 1259 4666
L 1259 0
L 628 0
L 628 4666
z
" transform="scale(0.015625)"/>
        <path id="DejaVuSans-5a" d="M 269 3500
L 844 3500
L 1563 769
L 2278 3500
L 2956 3500
L 3675 769
L 4391 3500
L 4966 3500
L 4050 0
L 3372 0
L 2619 2869
L 1863 0
L 1184 0
L 269 3500
z
" transform="scale(0.015625)"/>
        <path id="DejaVuSans-12" d="M 1625 4666
L 2156 4666
L 531 -594
L 0 -594
L 1625 4666
z
" transform="scale(0.015625)"/>
       </defs>
       <use xlink:href="#DejaVuSans-2c"/>
       <use xlink:href="#DejaVuSans-51" transform="translate(29.5 0)"/>
       <use xlink:href="#DejaVuSans-56" transform="translate(92.875 0)"/>
       <use xlink:href="#DejaVuSans-48" transform="translate(144.96875 0)"/>
       <use xlink:href="#DejaVuSans-55" transform="translate(206.5 0)"/>
       <use xlink:href="#DejaVuSans-57" transform="translate(247.609375 0)"/>
       <use xlink:href="#DejaVuSans-3" transform="translate(286.8125 0)"/>
       <use xlink:href="#DejaVuSans-b" transform="translate(318.59375 0)"/>
       <use xlink:href="#DejaVuSans-55" transform="translate(357.609375 0)"/>
       <use xlink:href="#DejaVuSans-52" transform="translate(396.515625 0)"/>
       <use xlink:href="#DejaVuSans-5a" transform="translate(457.703125 0)"/>
       <use xlink:href="#DejaVuSans-56" transform="translate(539.484375 0)"/>
       <use xlink:href="#DejaVuSans-12" transform="translate(591.578125 0)"/>
       <use xlink:href="#DejaVuSans-56" transform="translate(625.265625 0)"/>
       <use xlink:href="#DejaVuSans-c" transform="translate(677.359375 0)"/>
      </g>
     </g>
    </g>
   </g>
   <g id="matplotlib.axis_2">
    <g id="ytick_1">
     <g id="line2d_8">
      <defs>
       <path id="m0b5d1d7414" d="M 0 0
L -3.5 0
" style="stroke: #000000; stroke-width: 0.8"/>
      </defs>
      <g>
       <use xlink:href="#m0b5d1d7414" x="45.082344" y="331.877656" style="stroke: #000000; stroke-width: 0.8"/>
      </g>
     </g>
     <g id="text_8">
      <!-- 0 -->
      <g transform="translate(31.719844 335.676484) scale(0.1 -0.1)">
       <defs>
        <path id="DejaVuSans-13" d="M 2034 4250
Q 1547 4250 1301 3770
Q 1056 3291 1056 2328
Q 1056 1369 1301 889
Q 1547 409 2034 409
Q 2525 409 2770 889
Q 3016 1369 3016 2328
Q 3016 3291 2770 3770
Q 2525 4250 2034 4250
z
M 2034 4750
Q 2819 4750 3233 4129
Q 3647 3509 3647 2328
Q 3647 1150 3233 529
Q 2819 -91 2034 -91
Q 1250 -91 836 529
Q 422 1150 422 2328
Q 422 3509 836 4129
Q 1250 4750 2034 4750
z
" transform="scale(0.015625)"/>
       </defs>
       <use xlink:href="#DejaVuSans-13"/>
      </g>
     </g>
    </g>
    <g id="ytick_2">
     <g id="line2d_9">
      <g>
       <use xlink:href="#m0b5d1d7414" x="45.082344" y="292.713787" style="stroke: #000000; stroke-width: 0.8"/>
      </g>
     </g>
     <g id="text_9">
      <!-- 10 -->
      <g transform="translate(25.357344 296.512615) scale(0.1 -0.1)">
       <defs>
        <path id="DejaVuSans-14" d="M 794 531
L 1825 531
L 1825 4091
L 703 3866
L 703 4441
L 1819 4666
L 2450 4666
L 2450 531
L 3481 531
L 3481 0
L 794 0
L 794 531
z
" transform="scale(0.015625)"/>
       </defs>
       <use xlink:href="#DejaVuSans-14"/>
       <use xlink:href="#DejaVuSans-13" transform="translate(63.625 0)"/>
      </g>
     </g>
    </g>
    <g id="ytick_3">
     <g id="line2d_10">
      <g>
       <use xlink:href="#m0b5d1d7414" x="45.082344" y="253.549917" style="stroke: #000000; stroke-width: 0.8"/>
      </g>
     </g>
     <g id="text_10">
      <!-- 20 -->
      <g transform="translate(25.357344 257.348745) scale(0.1 -0.1)">
       <defs>
        <path id="DejaVuSans-15" d="M 1228 531
L 3431 531
L 3431 0
L 469 0
L 469 531
Q 828 903 1448 1529
Q 2069 2156 2228 2338
Q 2531 2678 2651 2914
Q 2772 3150 2772 3378
Q 2772 3750 2511 3984
Q 2250 4219 1831 4219
Q 1534 4219 1204 4116
Q 875 4013 500 3803
L 500 4441
Q 881 4594 1212 4672
Q 1544 4750 1819 4750
Q 2544 4750 2975 4387
Q 3406 4025 3406 3419
Q 3406 3131 3298 2873
Q 3191 2616 2906 2266
Q 2828 2175 2409 1742
Q 1991 1309 1228 531
z
" transform="scale(0.015625)"/>
       </defs>
       <use xlink:href="#DejaVuSans-15"/>
       <use xlink:href="#DejaVuSans-13" transform="translate(63.625 0)"/>
      </g>
     </g>
    </g>
    <g id="ytick_4">
     <g id="line2d_11">
      <g>
       <use xlink:href="#m0b5d1d7414" x="45.082344" y="214.386047" style="stroke: #000000; stroke-width: 0.8"/>
      </g>
     </g>
     <g id="text_11">
      <!-- 30 -->
      <g transform="translate(25.357344 218.184876) scale(0.1 -0.1)">
       <defs>
        <path id="DejaVuSans-16" d="M 2597 2516
Q 3050 2419 3304 2112
Q 3559 1806 3559 1356
Q 3559 666 3084 287
Q 2609 -91 1734 -91
Q 1441 -91 1130 -33
Q 819 25 488 141
L 488 750
Q 750 597 1062 519
Q 1375 441 1716 441
Q 2309 441 2620 675
Q 2931 909 2931 1356
Q 2931 1769 2642 2001
Q 2353 2234 1838 2234
L 1294 2234
L 1294 2753
L 1863 2753
Q 2328 2753 2575 2939
Q 2822 3125 2822 3475
Q 2822 3834 2567 4026
Q 2313 4219 1838 4219
Q 1578 4219 1281 4162
Q 984 4106 628 3988
L 628 4550
Q 988 4650 1302 4700
Q 1616 4750 1894 4750
Q 2613 4750 3031 4423
Q 3450 4097 3450 3541
Q 3450 3153 3228 2886
Q 3006 2619 2597 2516
z
" transform="scale(0.015625)"/>
       </defs>
       <use xlink:href="#DejaVuSans-16"/>
       <use xlink:href="#DejaVuSans-13" transform="translate(63.625 0)"/>
      </g>
     </g>
    </g>
    <g id="ytick_5">
     <g id="line2d_12">
      <g>
       <use xlink:href="#m0b5d1d7414" x="45.082344" y="175.222178" style="stroke: #000000; stroke-width: 0.8"/>
      </g>
     </g>
     <g id="text_12">
      <!-- 40 -->
      <g transform="translate(25.357344 179.021006) scale(0.1 -0.1)">
       <defs>
        <path id="DejaVuSans-17" d="M 2419 4116
L 825 1625
L 2419 1625
L 2419 4116
z
M 2253 4666
L 3047 4666
L 3047 1625
L 3713 1625
L 3713 1100
L 3047 1100
L 3047 0
L 2419 0
L 2419 1100
L 313 1100
L 313 1709
L 2253 4666
z
" transform="scale(0.015625)"/>
       </defs>
       <use xlink:href="#DejaVuSans-17"/>
       <use xlink:href="#DejaVuSans-13" transform="translate(63.625 0)"/>
      </g>
     </g>
    </g>
    <g id="ytick_6">
     <g id="line2d_13">
      <g>
       <use xlink:href="#m0b5d1d7414" x="45.082344" y="136.058308" style="stroke: #000000; stroke-width: 0.8"/>
      </g>
     </g>
     <g id="text_13">
      <!-- 50 -->
      <g transform="translate(25.357344 139.857136) scale(0.1 -0.1)">
       <use xlink:href="#DejaVuSans-18"/>
       <use xlink:href="#DejaVuSans-13" transform="translate(63.625 0)"/>
      </g>
     </g>
    </g>
    <g id="ytick_7">
     <g id="line2d_14">
      <g>
       <use xlink:href="#m0b5d1d7414" x="45.082344" y="96.894439" style="stroke: #000000; stroke-width: 0.8"/>
      </g>
     </g>
     <g id="text_14">
      <!-- 60 -->
      <g transform="translate(25.357344 100.693267) scale(0.1 -0.1)">
       <defs>
        <path id="DejaVuSans-19" d="M 2113 2584
Q 1688 2584 1439 2293
Q 1191 2003 1191 1497
Q 1191 994 1439 701
Q 1688 409 2113 409
Q 2538 409 2786 701
Q 3034 994 3034 1497
Q 3034 2003 2786 2293
Q 2538 2584 2113 2584
z
M 3366 4563
L 3366 3988
Q 3128 4100 2886 4159
Q 2644 4219 2406 4219
Q 1781 4219 1451 3797
Q 1122 3375 1075 2522
Q 1259 2794 1537 2939
Q 1816 3084 2150 3084
Q 2853 3084 3261 2657
Q 3669 2231 3669 1497
Q 3669 778 3244 343
Q 2819 -91 2113 -91
Q 1303 -91 875 529
Q 447 1150 447 2328
Q 447 3434 972 4092
Q 1497 4750 2381 4750
Q 2619 4750 2861 4703
Q 3103 4656 3366 4563
z
" transform="scale(0.015625)"/>
       </defs>
       <use xlink:href="#DejaVuSans-19"/>
       <use xlink:href="#DejaVuSans-13" transform="translate(63.625 0)"/>
      </g>
     </g>
    </g>
    <g id="ytick_8">
     <g id="line2d_15">
      <g>
       <use xlink:href="#m0b5d1d7414" x="45.082344" y="57.730569" style="stroke: #000000; stroke-width: 0.8"/>
      </g>
     </g>
     <g id="text_15">
      <!-- 70 -->
      <g transform="translate(25.357344 61.529397) scale(0.1 -0.1)">
       <defs>
        <path id="DejaVuSans-1a" d="M 525 4666
L 3525 4666
L 3525 4397
L 1831 0
L 1172 0
L 2766 4134
L 525 4134
L 525 4666
z
" transform="scale(0.015625)"/>
       </defs>
       <use xlink:href="#DejaVuSans-1a"/>
       <use xlink:href="#DejaVuSans-13" transform="translate(63.625 0)"/>
      </g>
     </g>
    </g>
    <g id="text_16">
     <!-- Normalized score vs SQLite (higher is better) -->
     <g transform="translate(18.955 291.461016) rotate(-90) scale(0.1 -0.1)">
      <defs>
       <path id="DejaVuSans-31" d="M 628 4666
L 1478 4666
L 3547 763
L 3547 4666
L 4159 4666
L 4159 0
L 3309 0
L 1241 3903
L 1241 0
L 628 0
L 628 4666
z
" transform="scale(0.015625)"/>
       <path id="DejaVuSans-4f" d="M 603 4863
L 1178 4863
L 1178 0
L 603 0
L 603 4863
z
" transform="scale(0.015625)"/>
       <path id="DejaVuSans-5d" d="M 353 3500
L 3084 3500
L 3084 2975
L 922 459
L 3084 459
L 3084 0
L 275 0
L 275 525
L 2438 3041
L 353 3041
L 353 3500
z
" transform="scale(0.015625)"/>
       <path id="DejaVuSans-59" d="M 191 3500
L 800 3500
L 1894 563
L 2988 3500
L 3597 3500
L 2284 0
L 1503 0
L 191 3500
z
" transform="scale(0.015625)"/>
       <path id="DejaVuSans-36" d="M 3425 4513
L 3425 3897
Q 3066 4069 2747 4153
Q 2428 4238 2131 4238
Q 1616 4238 1336 4038
Q 1056 3838 1056 3469
Q 1056 3159 1242 3001
Q 1428 2844 1947 2747
L 2328 2669
Q 3034 2534 3370 2195
Q 3706 1856 3706 1288
Q 3706 609 3251 259
Q 2797 -91 1919 -91
Q 1588 -91 1214 -16
Q 841 59 441 206
L 441 856
Q 825 641 1194 531
Q 1563 422 1919 422
Q 2459 422 2753 634
Q 3047 847 3047 1241
Q 3047 1584 2836 1778
Q 2625 1972 2144 2069
L 1759 2144
Q 1053 2284 737 2584
Q 422 2884 422 3419
Q 422 4038 858 4394
Q 1294 4750 2059 4750
Q 2388 4750 2728 4690
Q 3069 4631 3425 4513
z
" transform="scale(0.015625)"/>
       <path id="DejaVuSans-34" d="M 2522 4238
Q 1834 4238 1429 3725
Q 1025 3213 1025 2328
Q 1025 1447 1429 934
Q 1834 422 2522 422
Q 3209 422 3611 934
Q 4013 1447 4013 2328
Q 4013 3213 3611 3725
Q 3209 4238 2522 4238
z
M 3406 84
L 4238 -825
L 3475 -825
L 2784 -78
Q 2681 -84 2626 -87
Q 2572 -91 2522 -91
Q 1538 -91 948 567
Q 359 1225 359 2328
Q 359 3434 948 4092
Q 1538 4750 2522 4750
Q 3503 4750 4090 4092
Q 4678 3434 4678 2328
Q 4678 1516 4351 937
Q 4025 359 3406 84
z
" transform="scale(0.015625)"/>
       <path id="DejaVuSans-2f" d="M 628 4666
L 1259 4666
L 1259 531
L 3531 531
L 3531 0
L 628 0
L 628 4666
z
" transform="scale(0.015625)"/>
       <path id="DejaVuSans-4b" d="M 3513 2113
L 3513 0
L 2938 0
L 2938 2094
Q 2938 2591 2744 2837
Q 2550 3084 2163 3084
Q 1697 3084 1428 2787
Q 1159 2491 1159 1978
L 1159 0
L 581 0
L 581 4863
L 1159 4863
L 1159 2956
Q 1366 3272 1645 3428
Q 1925 3584 2291 3584
Q 2894 3584 3203 3211
Q 3513 2838 3513 2113
z
" transform="scale(0.015625)"/>
       <path id="DejaVuSans-45" d="M 3116 1747
Q 3116 2381 2855 2742
Q 2594 3103 2138 3103
Q 1681 3103 1420 2742
Q 1159 2381 1159 1747
Q 1159 1113 1420 752
Q 1681 391 2138 391
Q 2594 391 2855 752
Q 3116 1113 3116 1747
z
M 1159 2969
Q 1341 3281 1617 3432
Q 1894 3584 2278 3584
Q 2916 3584 3314 3078
Q 3713 2572 3713 1747
Q 3713 922 3314 415
Q 2916 -91 2278 -91
Q 1894 -91 1617 61
Q 1341 213 1159 525
L 1159 0
L 581 0
L 581 4863
L 1159 4863
L 1159 2969
z
" transform="scale(0.015625)"/>
      </defs>
      <use xlink:href="#DejaVuSans-31"/>
      <use xlink:href="#DejaVuSans-52" transform="translate(74.8125 0)"/>
      <use xlink:href="#DejaVuSans-55" transform="translate(136 0)"/>
      <use xlink:href="#DejaVuSans-50" transform="translate(175.359375 0)"/>
      <use xlink:href="#DejaVuSans-44" transform="translate(272.765625 0)"/>
      <use xlink:href="#DejaVuSans-4f" transform="translate(334.046875 0)"/>
      <use xlink:href="#DejaVuSans-4c" transform="translate(361.828125 0)"/>
      <use xlink:href="#DejaVuSans-5d" transform="translate(389.609375 0)"/>
      <use xlink:href="#DejaVuSans-48" transform="translate(442.09375 0)"/>
      <use xlink:href="#DejaVuSans-47" transform="translate(503.625 0)"/>
      <use xlink:href="#DejaVuSans-3" transform="translate(567.109375 0)"/>
      <use xlink:href="#DejaVuSans-56" transform="translate(598.890625 0)"/>
      <use xlink:href="#DejaVuSans-46" transform="translate(650.984375 0)"/>
      <use xlink:href="#DejaVuSans-52" transform="translate(705.96875 0)"/>
      <use xlink:href="#DejaVuSans-55" transform="translate(767.15625 0)"/>
      <use xlink:href="#DejaVuSans-48" transform="translate(806.0625 0)"/>
      <use xlink:href="#DejaVuSans-3" transform="translate(867.59375 0)"/>
      <use xlink:href="#DejaVuSans-59" transform="translate(899.375 0)"/>
      <use xlink:href="#DejaVuSans-56" transform="translate(958.5625 0)"/>
      <use xlink:href="#DejaVuSans-3" transform="translate(1010.65625 0)"/>
      <use xlink:href="#DejaVuSans-36" transform="translate(1042.4375 0)"/>
      <use xlink:href="#DejaVuSans-34" transform="translate(1105.921875 0)"/>
      <use xlink:href="#DejaVuSans-2f" transform="translate(1184.640625 0)"/>
      <use xlink:href="#DejaVuSans-4c" transform="translate(1240.359375 0)"/>
      <use xlink:href="#DejaVuSans-57" transform="translate(1268.140625 0)"/>
      <use xlink:href="#DejaVuSans-48" transform="translate(1307.34375 0)"/>
      <use xlink:href="#DejaVuSans-3" transform="translate(1368.875 0)"/>
      <use xlink:href="#DejaVuSans-b" transform="translate(1400.65625 0)"/>
      <use xlink:href="#DejaVuSans-4b" transform="translate(1439.671875 0)"/>
      <use xlink:href="#DejaVuSans-4c" transform="translate(1503.046875 0)"/>
      <use xlink:href="#DejaVuSans-4a" transform="translate(1530.828125 0)"/>
      <use xlink:href="#DejaVuSans-4b" transform="translate(1594.3125 0)"/>
      <use xlink:href="#DejaVuSans-48" transform="translate(1657.6875 0)"/>
      <use xlink:href="#DejaVuSans-55" transform="translate(1719.21875 0)"/>
      <use xlink:href="#DejaVuSans-3" transform="translate(1760.328125 0)"/>
      <use xlink:href="#DejaVuSans-4c" transform="translate(1792.109375 0)"/>
      <use xlink:href="#DejaVuSans-56" transform="translate(1819.890625 0)"/>
      <use xlink:href="#DejaVuSans-3" transform="translate(1871.984375 0)"/>
      <use xlink:href="#DejaVuSans-45" transform="translate(1903.765625 0)"/>
      <use xlink:href="#DejaVuSans-48" transform="translate(1967.25 0)"/>
      <use xlink:href="#DejaVuSans-57" transform="translate(2028.78125 0)"/>
      <use xlink:href="#DejaVuSans-57" transform="translate(2067.984375 0)"/>
      <use xlink:href="#DejaVuSans-48" transform="translate(2107.1875 0)"/>
      <use xlink:href="#DejaVuSans-55" transform="translate(2168.71875 0)"/>
      <use xlink:href="#DejaVuSans-c" transform="translate(2209.828125 0)"/>
     </g>
    </g>
   </g>
   <g id="line2d_16">
    <path d="M 45.082344 327.961269
L 853.2 327.961269
" clip-path="url(#pce83c43c73)" style="fill: none; stroke: #1f77b4; stroke-linecap: square"/>
   </g>
   <g id="patch_52">
    <path d="M 45.082344 331.877656
L 45.082344 26.16
" style="fill: none; stroke: #000000; stroke-width: 0.8; stroke-linejoin: miter; stroke-linecap: square"/>
   </g>
   <g id="patch_53">
    <path d="M 853.2 331.877656
L 853.2 26.16
" style="fill: none; stroke: #000000; stroke-width: 0.8; stroke-linejoin: miter; stroke-linecap: square"/>
   </g>
   <g id="patch_54">
    <path d="M 45.082344 331.877656
L 853.2 331.877656
" style="fill: none; stroke: #000000; stroke-width: 0.8; stroke-linejoin: miter; stroke-linecap: square"/>
   </g>
   <g id="patch_55">
    <path d="M 45.082344 26.16
L 853.2 26.16
" style="fill: none; stroke: #000000; stroke-width: 0.8; stroke-linejoin: miter; stroke-linecap: square"/>
   </g>
   <g id="text_17">
    <!-- DecentDB vs common embedded engines (normalized) -->
    <g transform="translate(282.834297 20.16) scale(0.12 -0.12)">
     <defs>
      <path id="DejaVuSans-27" d="M 1259 4147
L 1259 519
L 2022 519
Q 2988 519 3436 956
Q 3884 1394 3884 2338
Q 3884 3275 3436 3711
Q 2988 4147 2022 4147
L 1259 4147
z
M 628 4666
L 1925 4666
Q 3281 4666 3915 4102
Q 4550 3538 4550 2338
Q 4550 1131 3912 565
Q 3275 0 1925 0
L 628 0
L 628 4666
z
" transform="scale(0.015625)"/>
      <path id="DejaVuSans-25" d="M 1259 2228
L 1259 519
L 2272 519
Q 2781 519 3026 730
Q 3272 941 3272 1375
Q 3272 1813 3026 2020
Q 2781 2228 2272 2228
L 1259 2228
z
M 1259 4147
L 1259 2741
L 2194 2741
Q 2656 2741 2882 2914
Q 3109 3088 3109 3444
Q 3109 3797 2882 3972
Q 2656 4147 2194 4147
L 1259 4147
z
M 628 4666
L 2241 4666
Q 2963 4666 3353 4366
Q 3744 4066 3744 3513
Q 3744 3084 3544 2831
Q 3344 2578 2956 2516
Q 3422 2416 3680 2098
Q 3938 1781 3938 1306
Q 3938 681 3513 340
Q 3088 0 2303 0
L 628 0
L 628 4666
z
" transform="scale(0.015625)"/>
     </defs>
     <use xlink:href="#DejaVuSans-27"/>
     <use xlink:href="#DejaVuSans-48" transform="translate(77 0)"/>
     <use xlink:href="#DejaVuSans-46" transform="translate(138.53125 0)"/>
     <use xlink:href="#DejaVuSans-48" transform="translate(193.515625 0)"/>
     <use xlink:href="#DejaVuSans-51" transform="translate(255.046875 0)"/>
     <use xlink:href="#DejaVuSans-57" transform="translate(318.421875 0)"/>
     <use xlink:href="#DejaVuSans-27" transform="translate(357.625 0)"/>
     <use xlink:href="#DejaVuSans-25" transform="translate(434.625 0)"/>
     <use xlink:href="#DejaVuSans-3" transform="translate(503.234375 0)"/>
     <use xlink:href="#DejaVuSans-59" transform="translate(535.015625 0)"/>
     <use xlink:href="#DejaVuSans-56" transform="translate(594.203125 0)"/>
     <use xlink:href="#DejaVuSans-3" transform="translate(646.296875 0)"/>
     <use xlink:href="#DejaVuSans-46" transform="translate(678.078125 0)"/>
     <use xlink:href="#DejaVuSans-52" transform="translate(733.0625 0)"/>
     <use xlink:href="#DejaVuSans-50" transform="translate(794.25 0)"/>
     <use xlink:href="#DejaVuSans-50" transform="translate(891.65625 0)"/>
     <use xlink:href="#DejaVuSans-52" transform="translate(989.0625 0)"/>
     <use xlink:href="#DejaVuSans-51" transform="translate(1050.25 0)"/>
     <use xlink:href="#DejaVuSans-3" transform="translate(1113.625 0)"/>
     <use xlink:href="#DejaVuSans-48" transform="translate(1145.40625 0)"/>
     <use xlink:href="#DejaVuSans-50" transform="translate(1206.9375 0)"/>
     <use xlink:href="#DejaVuSans-45" transform="translate(1304.34375 0)"/>
     <use xlink:href="#DejaVuSans-48" transform="translate(1367.828125 0)"/>
     <use xlink:href="#DejaVuSans-47" transform="translate(1429.359375 0)"/>
     <use xlink:href="#DejaVuSans-47" transform="translate(1492.84375 0)"/>
     <use xlink:href="#DejaVuSans-48" transform="translate(1556.328125 0)"/>
     <use xlink:href="#DejaVuSans-47" transform="translate(1617.859375 0)"/>
     <use xlink:href="#DejaVuSans-3" transform="translate(1681.34375 0)"/>
     <use xlink:href="#DejaVuSans-48" transform="translate(1713.125 0)"/>
     <use xlink:href="#DejaVuSans-51" transform="translate(1774.65625 0)"/>
     <use xlink:href="#DejaVuSans-4a" transform="translate(1838.03125 0)"/>
     <use xlink:href="#DejaVuSans-4c" transform="translate(1901.515625 0)"/>
     <use xlink:href="#DejaVuSans-51" transform="translate(1929.296875 0)"/>
     <use xlink:href="#DejaVuSans-48" transform="translate(1992.671875 0)"/>
     <use xlink:href="#DejaVuSans-56" transform="translate(2054.203125 0)"/>
     <use xlink:href="#DejaVuSans-3" transform="translate(2106.296875 0)"/>
     <use xlink:href="#DejaVuSans-b" transform="translate(2138.078125 0)"/>
     <use xlink:href="#DejaVuSans-51" transform="translate(2177.09375 0)"/>
     <use xlink:href="#DejaVuSans-52" transform="translate(2240.46875 0)"/>
     <use xlink:href="#DejaVuSans-55" transform="translate(2301.65625 0)"/>
     <use xlink:href="#DejaVuSans-50" transform="translate(2341.015625 0)"/>
     <use xlink:href="#DejaVuSans-44" transform="translate(2438.421875 0)"/>
     <use xlink:href="#DejaVuSans-4f" transform="translate(2499.703125 0)"/>
     <use xlink:href="#DejaVuSans-4c" transform="translate(2527.484375 0)"/>
     <use xlink:href="#DejaVuSans-5d" transform="translate(2555.265625 0)"/>
     <use xlink:href="#DejaVuSans-48" transform="translate(2607.75 0)"/>
     <use xlink:href="#DejaVuSans-47" transform="translate(2669.28125 0)"/>
     <use xlink:href="#DejaVuSans-c" transform="translate(2732.765625 0)"/>
    </g>
   </g>
   <g id="legend_1">
    <g id="patch_56">
     <path d="M 52.082344 154.16625
L 249.235469 154.16625
Q 251.235469 154.16625 251.235469 152.16625
L 251.235469 33.16
Q 251.235469 31.16 249.235469 31.16
L 52.082344 31.16
Q 50.082344 31.16 50.082344 33.16
L 50.082344 152.16625
Q 50.082344 154.16625 52.082344 154.16625
z
" style="fill: #ffffff; opacity: 0.8; stroke: #cccccc; stroke-linejoin: miter"/>
    </g>
    <g id="text_18">
     <!-- Engine -->
     <g transform="translate(133.522188 42.758438) scale(0.1 -0.1)">
      <defs>
       <path id="DejaVuSans-28" d="M 628 4666
L 3578 4666
L 3578 4134
L 1259 4134
L 1259 2753
L 3481 2753
L 3481 2222
L 1259 2222
L 1259 531
L 3634 531
L 3634 0
L 628 0
L 628 4666
z
" transform="scale(0.015625)"/>
      </defs>
      <use xlink:href="#DejaVuSans-28"/>
      <use xlink:href="#DejaVuSans-51" transform="translate(63.1875 0)"/>
      <use xlink:href="#DejaVuSans-4a" transform="translate(126.5625 0)"/>
      <use xlink:href="#DejaVuSans-4c" transform="translate(190.046875 0)"/>
      <use xlink:href="#DejaVuSans-51" transform="translate(217.828125 0)"/>
      <use xlink:href="#DejaVuSans-48" transform="translate(281.203125 0)"/>
     </g>
    </g>
    <g id="patch_57">
     <path d="M 54.082344 57.759219
L 74.082344 57.759219
L 74.082344 50.759219
L 54.082344 50.759219
z
" style="fill: #1f77b4"/>
    </g>
    <g id="text_19">
     <!-- DecentDB (tuned durable) -->
     <g transform="translate(82.082344 57.759219) scale(0.1 -0.1)">
      <use xlink:href="#DejaVuSans-27"/>
      <use xlink:href="#DejaVuSans-48" transform="translate(77 0)"/>
      <use xlink:href="#DejaVuSans-46" transform="translate(138.53125 0)"/>
      <use xlink:href="#DejaVuSans-48" transform="translate(193.515625 0)"/>
      <use xlink:href="#DejaVuSans-51" transform="translate(255.046875 0)"/>
      <use xlink:href="#DejaVuSans-57" transform="translate(318.421875 0)"/>
      <use xlink:href="#DejaVuSans-27" transform="translate(357.625 0)"/>
      <use xlink:href="#DejaVuSans-25" transform="translate(434.625 0)"/>
      <use xlink:href="#DejaVuSans-3" transform="translate(503.234375 0)"/>
      <use xlink:href="#DejaVuSans-b" transform="translate(535.015625 0)"/>
      <use xlink:href="#DejaVuSans-57" transform="translate(574.03125 0)"/>
      <use xlink:href="#DejaVuSans-58" transform="translate(613.234375 0)"/>
      <use xlink:href="#DejaVuSans-51" transform="translate(676.609375 0)"/>
      <use xlink:href="#DejaVuSans-48" transform="translate(739.984375 0)"/>
      <use xlink:href="#DejaVuSans-47" transform="translate(801.515625 0)"/>
      <use xlink:href="#DejaVuSans-3" transform="translate(865 0)"/>
      <use xlink:href="#DejaVuSans-47" transform="translate(896.78125 0)"/>
      <use xlink:href="#DejaVuSans-58" transform="translate(960.265625 0)"/>
      <use xlink:href="#DejaVuSans-55" transform="translate(1023.640625 0)"/>
      <use xlink:href="#DejaVuSans-44" transform="translate(1064.75 0)"/>
      <use xlink:href="#DejaVuSans-45" transform="translate(1126.03125 0)"/>
      <use xlink:href="#DejaVuSans-4f" transform="translate(1189.515625 0)"/>
      <use xlink:href="#DejaVuSans-48" transform="translate(1217.296875 0)"/>
      <use xlink:href="#DejaVuSans-c" transform="translate(1278.828125 0)"/>
     </g>
    </g>
    <g id="patch_58">
     <path d="M 54.082344 72.76
L 74.082344 72.76
L 74.082344 65.76
L 54.082344 65.76
z
" style="fill: #ff7f0e"/>
    </g>
    <g id="text_20">
     <!-- DecentDB (balanced durable) -->
     <g transform="translate(82.082344 72.76) scale(0.1 -0.1)">
      <use xlink:href="#DejaVuSans-27"/>
      <use xlink:href="#DejaVuSans-48" transform="translate(77 0)"/>
      <use xlink:href="#DejaVuSans-46" transform="translate(138.53125 0)"/>
      <use xlink:href="#DejaVuSans-48" transform="translate(193.515625 0)"/>
      <use xlink:href="#DejaVuSans-51" transform="translate(255.046875 0)"/>
      <use xlink:href="#DejaVuSans-57" transform="translate(318.421875 0)"/>
      <use xlink:href="#DejaVuSans-27" transform="translate(357.625 0)"/>
      <use xlink:href="#DejaVuSans-25" transform="translate(434.625 0)"/>
      <use xlink:href="#DejaVuSans-3" transform="translate(503.234375 0)"/>
      <use xlink:href="#DejaVuSans-b" transform="translate(535.015625 0)"/>
      <use xlink:href="#DejaVuSans-45" transform="translate(574.03125 0)"/>
      <use xlink:href="#DejaVuSans-44" transform="translate(637.515625 0)"/>
      <use xlink:href="#DejaVuSans-4f" transform="translate(698.796875 0)"/>
      <use xlink:href="#DejaVuSans-44" transform="translate(726.578125 0)"/>
      <use xlink:href="#DejaVuSans-51" transform="translate(787.859375 0)"/>
      <use xlink:href="#DejaVuSans-46" transform="translate(851.234375 0)"/>
      <use xlink:href="#DejaVuSans-48" transform="translate(906.21875 0)"/>
      <use xlink:href="#DejaVuSans-47" transform="translate(967.75 0)"/>
      <use xlink:href="#DejaVuSans-3" transform="translate(1031.234375 0)"/>
      <use xlink:href="#DejaVuSans-47" transform="translate(1063.015625 0)"/>
      <use xlink:href="#DejaVuSans-58" transform="translate(1126.5 0)"/>
      <use xlink:href="#DejaVuSans-55" transform="translate(1189.875 0)"/>
      <use xlink:href="#DejaVuSans-44" transform="translate(1230.984375 0)"/>
      <use xlink:href="#DejaVuSans-45" transform="translate(1292.265625 0)"/>
      <use xlink:href="#DejaVuSans-4f" transform="translate(1355.75 0)"/>
      <use xlink:href="#DejaVuSans-48" transform="translate(1383.53125 0)"/>
      <use xlink:href="#DejaVuSans-c" transform="translate(1445.0625 0)"/>
     </g>
    </g>
    <g id="patch_59">
     <path d="M 54.082344 87.760781
L 74.082344 87.760781
L 74.082344 80.760781
L 54.082344 80.760781
z
" style="fill: #f4a261"/>
    </g>
    <g id="text_21">
     <!-- DecentDB (low-memory durable) -->
     <g transform="translate(82.082344 87.760781) scale(0.1 -0.1)">
      <defs>
       <path id="DejaVuSans-10" d="M 313 2009
L 1997 2009
L 1997 1497
L 313 1497
L 313 2009
z
" transform="scale(0.015625)"/>
       <path id="DejaVuSans-5c" d="M 2059 -325
Q 1816 -950 1584 -1140
Q 1353 -1331 966 -1331
L 506 -1331
L 506 -850
L 844 -850
Q 1081 -850 1212 -737
Q 1344 -625 1503 -206
L 1606 56
L 191 3500
L 800 3500
L 1894 763
L 2988 3500
L 3597 3500
L 2059 -325
z
" transform="scale(0.015625)"/>
      </defs>
      <use xlink:href="#DejaVuSans-27"/>
      <use xlink:href="#DejaVuSans-48" transform="translate(77 0)"/>
      <use xlink:href="#DejaVuSans-46" transform="translate(138.53125 0)"/>
      <use xlink:href="#DejaVuSans-48" transform="translate(193.515625 0)"/>
      <use xlink:href="#DejaVuSans-51" transform="translate(255.046875 0)"/>
      <use xlink:href="#DejaVuSans-57" transform="translate(318.421875 0)"/>
      <use xlink:href="#DejaVuSans-27" transform="translate(357.625 0)"/>
      <use xlink:href="#DejaVuSans-25" transform="translate(434.625 0)"/>
      <use xlink:href="#DejaVuSans-3" transform="translate(503.234375 0)"/>
      <use xlink:href="#DejaVuSans-b" transform="translate(535.015625 0)"/>
      <use xlink:href="#DejaVuSans-4f" transform="translate(574.03125 0)"/>
      <use xlink:href="#DejaVuSans-52" transform="translate(601.8125 0)"/>
      <use xlink:href="#DejaVuSans-5a" transform="translate(663 0)"/>
      <use xlink:href="#DejaVuSans-10" transform="translate(744.78125 0)"/>
      <use xlink:href="#DejaVuSans-50" transform="translate(780.859375 0)"/>
      <use xlink:href="#DejaVuSans-48" transform="translate(878.265625 0)"/>
      <use xlink:href="#DejaVuSans-50" transform="translate(939.796875 0)"/>
      <use xlink:href="#DejaVuSans-52" transform="translate(1037.203125 0)"/>
      <use xlink:href="#DejaVuSans-55" transform="translate(1098.390625 0)"/>
      <use xlink:href="#DejaVuSans-5c" transform="translate(1139.5 0)"/>
      <use xlink:href="#DejaVuSans-3" transform="translate(1198.6875 0)"/>
      <use xlink:href="#DejaVuSans-47" transform="translate(1230.46875 0)"/>
      <use xlink:href="#DejaVuSans-58" transform="translate(1293.953125 0)"/>
      <use xlink:href="#DejaVuSans-55" transform="translate(1357.328125 0)"/>
      <use xlink:href="#DejaVuSans-44" transform="translate(1398.4375 0)"/>
      <use xlink:href="#DejaVuSans-45" transform="translate(1459.71875 0)"/>
      <use xlink:href="#DejaVuSans-4f" transform="translate(1523.203125 0)"/>
      <use xlink:href="#DejaVuSans-48" transform="translate(1550.984375 0)"/>
      <use xlink:href="#DejaVuSans-c" transform="translate(1612.515625 0)"/>
     </g>
    </g>
    <g id="patch_60">
     <path d="M 54.082344 102.761563
L 74.082344 102.761563
L 74.082344 95.761563
L 54.082344 95.761563
z
" style="fill: #2ca02c"/>
    </g>
    <g id="text_22">
     <!-- SQLite -->
     <g transform="translate(82.082344 102.761563) scale(0.1 -0.1)">
      <use xlink:href="#DejaVuSans-36"/>
      <use xlink:href="#DejaVuSans-34" transform="translate(63.484375 0)"/>
      <use xlink:href="#DejaVuSans-2f" transform="translate(142.203125 0)"/>
      <use xlink:href="#DejaVuSans-4c" transform="translate(197.921875 0)"/>
      <use xlink:href="#DejaVuSans-57" transform="translate(225.703125 0)"/>
      <use xlink:href="#DejaVuSans-48" transform="translate(264.90625 0)"/>
     </g>
    </g>
    <g id="patch_61">
     <path d="M 54.082344 117.762344
L 74.082344 117.762344
L 74.082344 110.762344
L 54.082344 110.762344
z
" style="fill: #d62728"/>
    </g>
    <g id="text_23">
     <!-- DuckDB (engine default) -->
     <g transform="translate(82.082344 117.762344) scale(0.1 -0.1)">
      <defs>
       <path id="DejaVuSans-4e" d="M 581 4863
L 1159 4863
L 1159 1991
L 2875 3500
L 3609 3500
L 1753 1863
L 3688 0
L 2938 0
L 1159 1709
L 1159 0
L 581 0
L 581 4863
z
" transform="scale(0.015625)"/>
       <path id="DejaVuSans-49" d="M 2375 4863
L 2375 4384
L 1825 4384
Q 1516 4384 1395 4259
Q 1275 4134 1275 3809
L 1275 3500
L 2222 3500
L 2222 3053
L 1275 3053
L 1275 0
L 697 0
L 697 3053
L 147 3053
L 147 3500
L 697 3500
L 697 3744
Q 697 4328 969 4595
Q 1241 4863 1831 4863
L 2375 4863
z
" transform="scale(0.015625)"/>
      </defs>
      <use xlink:href="#DejaVuSans-27"/>
      <use xlink:href="#DejaVuSans-58" transform="translate(77 0)"/>
      <use xlink:href="#DejaVuSans-46" transform="translate(140.375 0)"/>
      <use xlink:href="#DejaVuSans-4e" transform="translate(195.359375 0)"/>
      <use xlink:href="#DejaVuSans-27" transform="translate(253.265625 0)"/>
      <use xlink:href="#DejaVuSans-25" transform="translate(330.265625 0)"/>
      <use xlink:href="#DejaVuSans-3" transform="translate(398.875 0)"/>
      <use xlink:href="#DejaVuSans-b" transform="translate(430.65625 0)"/>
      <use xlink:href="#DejaVuSans-48" transform="translate(469.671875 0)"/>
      <use xlink:href="#DejaVuSans-51" transform="translate(531.203125 0)"/>
      <use xlink:href="#DejaVuSans-4a" transform="translate(594.578125 0)"/>
      <use xlink:href="#DejaVuSans-4c" transform="translate(658.0625 0)"/>
      <use xlink:href="#DejaVuSans-51" transform="translate(685.84375 0)"/>
      <use xlink:href="#DejaVuSans-48" transform="translate(749.21875 0)"/>
      <use xlink:href="#DejaVuSans-3" transform="translate(810.75 0)"/>
      <use xlink:href="#DejaVuSans-47" transform="translate(842.53125 0)"/>
      <use xlink:href="#DejaVuSans-48" transform="translate(906.015625 0)"/>
      <use xlink:href="#DejaVuSans-49" transform="translate(967.546875 0)"/>
      <use xlink:href="#DejaVuSans-44" transform="translate(1002.75 0)"/>
      <use xlink:href="#DejaVuSans-58" transform="translate(1064.03125 0)"/>
      <use xlink:href="#DejaVuSans-4f" transform="translate(1127.40625 0)"/>
      <use xlink:href="#DejaVuSans-57" transform="translate(1155.1875 0)"/>
      <use xlink:href="#DejaVuSans-c" transform="translate(1194.390625 0)"/>
     </g>
    </g>
    <g id="patch_62">
     <path d="M 54.082344 132.763125
L 74.082344 132.763125
L 74.082344 125.763125
L 54.082344 125.763125
z
" style="fill: #9467bd"/>
    </g>
    <g id="text_24">
     <!-- H2 (read-only partial) -->
     <g transform="translate(82.082344 132.763125) scale(0.1 -0.1)">
      <defs>
       <path id="DejaVuSans-2b" d="M 628 4666
L 1259 4666
L 1259 2753
L 3553 2753
L 3553 4666
L 4184 4666
L 4184 0
L 3553 0
L 3553 2222
L 1259 2222
L 1259 0
L 628 0
L 628 4666
z
" transform="scale(0.015625)"/>
      </defs>
      <use xlink:href="#DejaVuSans-2b"/>
      <use xlink:href="#DejaVuSans-15" transform="translate(75.203125 0)"/>
      <use xlink:href="#DejaVuSans-3" transform="translate(138.828125 0)"/>
      <use xlink:href="#DejaVuSans-b" transform="translate(170.609375 0)"/>
      <use xlink:href="#DejaVuSans-55" transform="translate(209.625 0)"/>
      <use xlink:href="#DejaVuSans-48" transform="translate(248.53125 0)"/>
      <use xlink:href="#DejaVuSans-44" transform="translate(310.0625 0)"/>
      <use xlink:href="#DejaVuSans-47" transform="translate(371.34375 0)"/>
      <use xlink:href="#DejaVuSans-10" transform="translate(434.828125 0)"/>
      <use xlink:href="#DejaVuSans-52" transform="translate(472.765625 0)"/>
      <use xlink:href="#DejaVuSans-51" transform="translate(533.953125 0)"/>
      <use xlink:href="#DejaVuSans-4f" transform="translate(597.328125 0)"/>
      <use xlink:href="#DejaVuSans-5c" transform="translate(625.109375 0)"/>
      <use xlink:href="#DejaVuSans-3" transform="translate(684.296875 0)"/>
      <use xlink:href="#DejaVuSans-53" transform="translate(716.078125 0)"/>
      <use xlink:href="#DejaVuSans-44" transform="translate(779.5625 0)"/>
      <use xlink:href="#DejaVuSans-55" transform="translate(840.84375 0)"/>
      <use xlink:href="#DejaVuSans-57" transform="translate(881.953125 0)"/>
      <use xlink:href="#DejaVuSans-4c" transform="translate(921.15625 0)"/>
      <use xlink:href="#DejaVuSans-44" transform="translate(948.9375 0)"/>
      <use xlink:href="#DejaVuSans-4f" transform="translate(1010.21875 0)"/>
      <use xlink:href="#DejaVuSans-c" transform="translate(1038 0)"/>
     </g>
    </g>
    <g id="patch_63">
     <path d="M 54.082344 147.763906
L 74.082344 147.763906
L 74.082344 140.763906
L 54.082344 140.763906
z
" style="fill: #17becf"/>
    </g>
    <g id="text_25">
     <!-- HSQLDB (read-only partial) -->
     <g transform="translate(82.082344 147.763906) scale(0.1 -0.1)">
      <use xlink:href="#DejaVuSans-2b"/>
      <use xlink:href="#DejaVuSans-36" transform="translate(75.203125 0)"/>
      <use xlink:href="#DejaVuSans-34" transform="translate(138.6875 0)"/>
      <use xlink:href="#DejaVuSans-2f" transform="translate(217.40625 0)"/>
      <use xlink:href="#DejaVuSans-27" transform="translate(273.125 0)"/>
      <use xlink:href="#DejaVuSans-25" transform="translate(350.125 0)"/>
      <use xlink:href="#DejaVuSans-3" transform="translate(418.734375 0)"/>
      <use xlink:href="#DejaVuSans-b" transform="translate(450.515625 0)"/>
      <use xlink:href="#DejaVuSans-55" transform="translate(489.53125 0)"/>
      <use xlink:href="#DejaVuSans-48" transform="translate(528.4375 0)"/>
      <use xlink:href="#DejaVuSans-44" transform="translate(589.96875 0)"/>
      <use xlink:href="#DejaVuSans-47" transform="translate(651.25 0)"/>
      <use xlink:href="#DejaVuSans-10" transform="translate(714.734375 0)"/>
      <use xlink:href="#DejaVuSans-52" transform="translate(752.671875 0)"/>
      <use xlink:href="#DejaVuSans-51" transform="translate(813.859375 0)"/>
      <use xlink:href="#DejaVuSans-4f" transform="translate(877.234375 0)"/>
      <use xlink:href="#DejaVuSans-5c" transform="translate(905.015625 0)"/>
      <use xlink:href="#DejaVuSans-3" transform="translate(964.203125 0)"/>
      <use xlink:href="#DejaVuSans-53" transform="translate(995.984375 0)"/>
      <use xlink:href="#DejaVuSans-44" transform="translate(1059.46875 0)"/>
      <use xlink:href="#DejaVuSans-55" transform="translate(1120.75 0)"/>
      <use xlink:href="#DejaVuSans-57" transform="translate(1161.859375 0)"/>
      <use xlink:href="#DejaVuSans-4c" transform="translate(1201.0625 0)"/>
      <use xlink:href="#DejaVuSans-44" transform="translate(1228.84375 0)"/>
      <use xlink:href="#DejaVuSans-4f" transform="translate(1290.125 0)"/>
      <use xlink:href="#DejaVuSans-c" transform="translate(1317.90625 0)"/>
     </g>
    </g>
   </g>
  </g>
 </g>
 <defs>
  <clipPath id="pce83c43c73">
   <rect x="45.082344" y="26.16" width="808.117656" height="305.717656"/>
  </clipPath>
 </defs>
</svg>
